/* XPM */
static char *_966c48bab014e409205a83c764cb2992L2hZleyGXbcyv8a[] = {
/* columns rows colors chars-per-pixel */
"80 50 256 2 ",
"   c #080401",
".  c #020818",
"X  c #14110A",
"o  c #2D1409",
"O  c #122C0C",
"+  c #302F14",
"@  c #071827",
"#  c #07162E",
"$  c #122630",
"%  c #312C2B",
"&  c #250731",
"*  c #49100C",
"=  c #731A0D",
"-  c #51300D",
";  c #6A2C13",
":  c #4C2D2A",
">  c #6E3530",
",  c #5F1A26",
"<  c #325212",
"1  c #36700C",
"2  c #344F2A",
"3  c #2F6A2E",
"4  c #11561B",
"5  c #534D13",
"6  c #685016",
"7  c #4D6A18",
"8  c #666E11",
"9  c #505233",
"0  c #6D5030",
"q  c #596836",
"w  c #4F6E2F",
"e  c #6F7032",
"r  c #162E4B",
"t  c #2E384F",
"y  c #183264",
"u  c #583851",
"i  c #612D5E",
"p  c #314E51",
"a  c #3A5468",
"s  c #286B55",
"d  c #504F4F",
"f  c #745150",
"g  c #537350",
"h  c #756B4E",
"j  c #4E536C",
"k  c #6E566E",
"l  c #496E6E",
"z  c #70736D",
"x  c #8D1913",
"c  c #902D12",
"v  c #8C312C",
"b  c #A02734",
"n  c #8C4C2E",
"m  c #A95336",
"M  c #937230",
"N  c #AC7332",
"B  c #986117",
"V  c #CF6538",
"C  c #882F41",
"Z  c #B23D40",
"A  c #8E4F4F",
"S  c #A84F4F",
"D  c #8E6F53",
"F  c #BB6957",
"G  c #AC6E57",
"H  c #934C6D",
"J  c #8E706F",
"K  c #AB786E",
"L  c #AA5D77",
"P  c #CD6E6E",
"I  c #C4575E",
"U  c #52882C",
"Y  c #6C8938",
"T  c #5FA531",
"R  c #4D8C4B",
"E  c #718D50",
"W  c #6FA756",
"Q  c #528F72",
"!  c #718F6D",
"~  c #76AA71",
"^  c #5EA25D",
"/  c #7AC461",
"(  c #359716",
")  c #929233",
"_  c #9BA83A",
"`  c #ABAA3A",
"'  c #A18E24",
"]  c #CFA02C",
"[  c #D7CA32",
"{  c #8E8D4F",
"}  c #AC8E55",
"|  c #8BA753",
" . c #B1AF53",
".. c #868775",
"X. c #989777",
"o. c #90916C",
"O. c #B18F72",
"+. c #91AE73",
"@. c #B1AD72",
"#. c #C8B44E",
"$. c #CD8D75",
"%. c #CCB272",
"&. c #E2A65D",
"*. c #94C952",
"=. c #93C76F",
"-. c #B6CF6A",
";. c #D0CC73",
":. c #EECC6F",
">. c #D9D957",
",. c #35758D",
"<. c #2F65A3",
"1. c #73518A",
"2. c #567489",
"3. c #516E8B",
"4. c #6D758F",
"5. c #547BB0",
"6. c #6A7AAC",
"7. c #585284",
"8. c #577CC7",
"9. c #8F7189",
"0. c #B57093",
"q. c #8574A7",
"w. c #99629A",
"e. c #D77B8E",
"r. c #8E79C6",
"t. c #569191",
"y. c #65979A",
"u. c #6E8C92",
"i. c #74AC8E",
"p. c #5989B7",
"a. c #5393B1",
"s. c #7090AF",
"d. c #70A7B0",
"f. c #5AA68F",
"g. c #7EC28B",
"h. c #5787C7",
"j. c #5995CA",
"k. c #4F8BDD",
"l. c #548BDC",
"z. c #5A8DDE",
"x. c #5787D8",
"c. c #5B93DD",
"v. c #5997D7",
"b. c #4C95CE",
"n. c #6998C9",
"m. c #658CD8",
"M. c #6293DD",
"N. c #639ADE",
"B. c #6C9CDC",
"V. c #6895D6",
"C. c #719DDE",
"Z. c #7698D9",
"A. c #6F96C8",
"S. c #5CA3D1",
"D. c #78A3CB",
"F. c #68A3DB",
"G. c #72A4DC",
"H. c #77A6D6",
"J. c #68A3C8",
"K. c #548DE1",
"L. c #5C8DE3",
"P. c #5C95E0",
"I. c #5F98E1",
"U. c #5793EA",
"Y. c #4F8BE4",
"T. c #628CE3",
"R. c #6494E1",
"E. c #649BE1",
"W. c #6C9DE2",
"Q. c #6894E5",
"!. c #749CE3",
"~. c #6CA0E2",
"^. c #69A2E4",
"/. c #73A2E4",
"(. c #79A6E6",
"). c #7DABE3",
"_. c #7CA9E8",
"`. c #79A8E8",
"'. c #77B2E2",
"]. c #3B8693",
"[. c #8D9594",
"{. c #AD918E",
"}. c #90AE91",
"|. c #A9B090",
" X c #8898B7",
".X c #9499B8",
"XX c #8A8EA7",
"oX c #AE8AB4",
"OX c #8AA8B9",
"+X c #91B2B1",
"@X c #B0ADAF",
"#X c #CE9484",
"$X c #CDAF8C",
"%X c #EFAA8E",
"&X c #C48CB2",
"*X c #C7B1B2",
"=X c #E7AEAF",
"-X c #E9929C",
";X c #94CA8E",
":X c #ABCF91",
">X c #97C9A5",
",X c #AED1B4",
"<X c #BEF9A8",
"1X c #D2D396",
"2X c #D1CEAA",
"3X c #EBD4AE",
"4X c #F8E7B1",
"5X c #DFEB96",
"6X c #8A99CE",
"7X c #8AA6C6",
"8X c #96A8C7",
"9X c #88ACD9",
"0X c #96ABD9",
"qX c #87B3D9",
"wX c #94B5DD",
"eX c #9CB4DC",
"rX c #9DB9DD",
"tX c #96B5D7",
"yX c #93B4CB",
"uX c #A5ABD7",
"iX c #A2B9DC",
"pX c #A5B7D9",
"aX c #ADAECD",
"sX c #82ADE2",
"dX c #88ABE7",
"fX c #94AAE9",
"gX c #86B1E0",
"hX c #8CB4E4",
"jX c #8AB8EB",
"kX c #94B6E3",
"lX c #9AB7E2",
"zX c #96B9E2",
"xX c #9AB9E2",
"cX c #96B5EB",
"vX c #8EB6F4",
"bX c #A3B5E4",
"nX c #A1BCE4",
"mX c #A6BAE8",
"MX c #ABB0E8",
"NX c #8E9AD9",
"BX c #CDB6CF",
"VX c #CBA2D7",
"CX c #93C8D1",
"ZX c #ACC8CE",
"AX c #B1EAC3",
"SX c #96C5F1",
"DX c #A7C4E9",
"FX c #B6C8E6",
"GX c #AADAFF",
"HX c #ACCCF7",
"JX c #B6E1FF",
"KX c #D1CEC5",
"LX c #F1D3CF",
"PX c #CBEEFF",
"IX c #F6F1F5",
"UX c #DDE1E4",
/* pixels */
"c.z.v.z.c.z.c.z.c.z.c.z.c.c.c.K.c.c.v.P.c.v.c.v.c.c.v.K.c.K.c.U.U.U.T.m.T.T.N.F.j.j.b.b.U.^.V.H.h.j.v.k.c.k.U.K.k.P.b.l.x.x.T.8.l.k.k.k.k.l.k.k.x.k.x.x.l.z.z.z.",
"c.v.z.v.c.c.c.v.z.c.c.z.K.c.c.c.k.v.k.v.c.K.c.k.v.K.c.c.c.z.c.K.U.U.T.T.T.R.b.j.n.j.v.k.v.b.SXPXZ.j.p.b.v.b.p.'.J.j.j.h.h.l.8.L.l.k.k.k.l.k.x.k.k.x.l.k.l.l.l.z.",
"v.c.v.c.c.c.c.c.c.P.z.P.P.c.K.c.U.c.U.v.c.U.v.v.K.v.v.U.P.z.P.P.Y.U.L.T.h.F.p.v.x.V.v.v.j.s.wXGXgXn.a.a.a.f.g.AXAXf.y.p.h.x.L.K.k.k.k.k.k.l.l.l.l.l.l.x.x.l.z.z.",
"v.c.c.c.M.c.c.c.c.c.P.z.c.K.c.P.v.v.c.c.c.v.v.U.c.c.c.v.c.c.L.c.K.U.T.T.GXGXv.S.j.n.x.V.kXJX+X2.2.s.}.}.>X~ / =.;Xi.AXy.h.x.x.k.k.k.K.k.Y.l.l.k.l.l.x.l.l.l.z.z.",
"z.m.c.c.c.v.c.c.c.P.P.P.K.P.c.K.c.c.c.v.c.c.c.c.c.c.c.c.c.c.c.c.v.P.Q.W.GXGX'.b.b.].n.6.JXOX+Xl p s.;.#.) ) +.^ ! ,X,Xi.p.8.Y.K.l.k.K.K.K.K.k.k.l.l.l.l.z.z.z.x.",
"v.c.c.c.c.c.c.c.P.c.K.P.c.P.P.c.c.c.c.c.c.c.c.c.c.c.c.c.c.P.P.c.v.c.v.V.Z.qXa.a.a.n.8Xq..XCX+XQ k ..' ' M h ^ Q d.i.f.t.h.x.8.L.k.K.k.K.K.K.K.c.l.l.l.l.z.z.z.z.",
"c.c.c.c.M.P.P.c.P.P.I.P.P.v.P.P.P.P.P.P.I.c.c.N.v.P.c.I.c.R.P.c.P.v.V.jXG.a.S.].s t.w.H s.f.f.g.E D { X...u.p.j.v.<.5.x.x.Y.Y.L.K.k.K.k.K.P.K.K.z.z.z.l.z.z.z.z.",
"c.M.c.N.I.P.P.P.P.P.I.v.U.U.v.P.P.c.P.P.P.I.c.c.I.P.c.c.N.c.N.c.c.v.jXPXvXn.a.].,.u.k J u.f.d.f.^ E 5X3X@Xu.v.x.8.<.<.8.x.x.8.x.K.k.k.K.c.K.k.c.l.K.z.z.z.z.z.z.",
"N.c.I.c.E.c.c.c.P.P.I.P.P.P.E.I.U.E.P.I.P.c.c.I.I.c.c.c.c.M.N.M.c.N.Z.cXcXB.j.F.B.s.Q 3 w i.d.t.t.[.1X#.D [.s.8.6.7.1.r.r.8.8.T.z.l.k.l.E.z.c.c.z.z.L.z.z.z.z.z.",
"I.I.I.I.I.I.E.I.E.P.I.I.I.I.I.I.I.I.I.I.I.E.I.I.I.I.F.N.N.N.P.M.N.N.V.G.Z.V.M.Q.Q.p.R R E ..d.d.f.}.' B } @Xs.6.r.w.0.H w.w.6.n.p.j.M.j.h.j.v.P.z.z.z.z.M.L.P.L.",
"^.c.E.I.^.c.E.E.E.E.E.E.E.I.E.E.I.E.E.I.N.E.N.N.N.c.c.N.N.N.N.N.V.N.v.j.v.I.Q.R.T. X{.%X$.3XKX[.i.Q 6 - w ! s.p.q.LXI b C A }.>Xi.i.a.d.J.a.b.b.z.z.z.z.z.T.L.M.",
"c.^.E.I.I.F.c.E.E.c.E.I.E.E.R.E.E.I.I.I.E.c.N.I.N.E.N.N.N.N.v.M.V.V.F.v.b.F.G.p.s.[.O.F A =XLX@XQ s 0 + E l s.t.8X*XP Z C J |.<X=.=.;X>X>Xa.S.v.c.z.M.z.M.z.L.m.",
"F.E.I.E.E.N.E.E.N.E.E.E.E.E.E.E.E.I.E.E.N.E.N.N.E.E.N.c.N.E.c.V.B.V.j.d.a.D.d.,X1X%.$X$.G {.oX.XOXXXk D h o.KX}.2X*X{.f 1.u.u.~ ` [ ` | i.t.v.U.z.m.M.M.M.M.M.M.",
"E.E.E.N.N.N.E.N.E.E.N.E.E.P.E.E.E.E.E.E.E.W.E.B.E.E.N.F.R.E.N.V.m.s.d.i.g.;XAXUX-.1XLX3X$X} 0.&XIXBX@Xo.G G $X2X4X*XK 0.q.s.y.}.>.[ [ [ ^ y.v.Q.M.M.z.M.T.R.T.M.",
"^.E.E.E.E.^.W.N.E.E.^.E.E.E.E.E.E.E.E.E.W.E.E.N.E.E.E.N.^.E.P.SXmXs.:X<X*._ ,X,Xi.^ :X5X5X:.e.I P =X*XJ > m }  .:X%.0.S 0.oXBX@X-.' [ ` u.p.x.M.Q.m.M.M.R.R.R.R.",
"N.E.E.^.N.^.E.^.E.E.E.E.W.W.Q.E.W.E.Q.E.E.W.^.E.E.E.N.B.^.^._.JXHX7X1X>.-._ +.}.3 4 ;X@.>.[ V b S =X{.0.F m N %.@.} G -Xe.f *X1X) _ #.{ }.pXNXZ.B.R.R.M.W.W.Q.Q.",
"^.E.^.E.W.W.E.^.E.W.E.W.W.W.~.W.W.E.W.E.W.W.W.E.E.W.B.F.G.V.vXvXvXyX}.@.)  .O.O.{ E @.4X:.V F S S O.A > P $.; M ) D H =XK D +.W ^ R 3 E 2XKX.XZ.m.Q.Q.Z.Q.!.Q.W.",
"N.^.E.W.W.E.W.E.W.W.W.E.W.E.W.W.W.W.W.W.W.W.W.W.E.E.B.V.G.V.c.`.G.d.d.[.O.O.A A 3X#.%.3XV c } $XA A ; > K G B 0 5 h d k z ! g R Q s O E @.{.6XZ.Z.Q.!.Q.W.B.W.!.",
"^.^.F.^.~.~.^.~.^.^.W.^.~.~.W.~.W.W.W.W.W.~.^.W.W.W.^.F.'.vX^.^.^.F.J.D.XXw.H S N N &.&.V N } @.f A > n e - $Xh $ @ r y 3.t.u.d.d.y.,X:Xe !  XNXQ.B.Z.Q.W.!.W.!.",
"~.~.W.W.^.~.W.~.W.^.W./.W.~.~.W.B.W.G.W./.~.!.W.~.E.^.F.SXSXI.^.F.F.I.I.5.7.f O.&.] B V LX$.+ E *XK 0 J 6 8 @.o.d l 3.p.J.S.D.D.H.d.,X:XE h 6X!.!.B.!.W.W.!.B.W.",
"~.~./.~.W.W.!.~.W.W./.W./.W./.W././.!.G././.!.~.!./.~.F.F.j.D.d.Z.n.S.a.5.2.>X:XB B Z V -XJ o 9 {.X.w 5 o } :.) E ! l 2.H.H.V.A.n.d.+.w R Q a.c.!.B.!.C.C.C.C.B.",
"/./.~.^././.W././.W./.W.W./.W./.C.W././.!././.!.G.!.G.F.'.A.ZXCX7XDXSXa.wXOX^ U B B P Z #XK + q |.o.7 5 - &.] 8 w ! q   d.7XqX7Xs.i.W E i.].,.<.m.m._.B.W.C.!.B.",
"/./.^./././././.`./././.(././.!./././.!.!././.C.C.G.G.H.!.yX|.o.,XIXAXAXIXVXi.! 0 N F -X-XA e } K G A v N :.:.:.1X|.^ 3 i.l Q }.h { | o.d.s.s.H.GXG.B.(.C.C.!.W.",
"/.`.`./.`./.`./././.`././.(././././.~.!.G./.!.G.G.H.F.C.!.9XX.o.! ! }.X.9.u g h { } } $.O.0 0 6 K S Z c 6  .N N %.o.E R R 3 9 g 9 M 4X1XXX6X7XHXSXC././.C.G.G.G.",
"`./.`.`.(.(.`.(./.`.(.(.(.(.`.(.(.`.`.`.`._.`.`.(.H.)._._.Z.OX[.g 4 E z t   2 7 >._ ) { @.7 O | LXF x x A h ) M O.O.M + O < 5 D X - |.|.*Xq. Xs.D.G.G.G.G.H.G.H.",
"`.`.`.`.(.`.`.(.`.`.`.`.`.`.`.(.(._.`._._._.`._.H.).).dX!.dXPX+X3 ^ }.<Xg 2 -.` ' ' 7 q Y 1 7 | {.O.c x #X*X{.} #X} O.{ 1 q - > X o D {.0.J 4.d.D.G.G.H.G.G.G.G.",
"`.`.`.`._._._._._._.).)._._._._.`._._._._._._._._._._.dX!.mXKX+Xg./ T -.*.1 ) #.:.` { 9 w +. . .@.O.c = : $Xf : O.3X$XJ o.{.>       X 9 X.....}.D.`.G.(././.!.(.",
").).).).).).).).).).).).).).).).).).).).).).).)._._._.`.dXlXaX*Xi.R T *.T 1 8 M ' ) [.z 2 6 5 e :X2X$Xn D D o   J X.D D {.IX[.: : A $.@.o.[...[.D.(.!.(.(.(.!.dX",
").).).).).).).).sX).sXsX).sXsXdX).).).).).).).).`.'._.sXsXNX0.H [.}.e W 3 3 R o.X.X.u.p % O + X.|.o.+.+.q h + f XX@XL C #X*X{.A F %X:.' { g z XX3.8.dX!.sXvXdXdX",
"gXgXgX).sXgXsXsXsXsXsXsXsXsXsXsXgX).gX).qX).sXsX'.'.).sXdXuX0.0.[.,X2XE 4 3 i.@XBX|.J 2 O O 9 |.X.7 3 < w 0 A A @XJ v C i J D 0 v m m B e 2 [.u.# y mXcX9X0X6X9X",
"gXgXgXgXgXgXgXgXsXgXgXgXsXgXgXgXgX'.qX).gX).gXsXqXqXgXgX9X0XIXIX}.+.1XO.2 f.+XLX&XP v = * 6 h { ..9 3 +.h ; = c S P b S 9.d D h o * - : }.OXu.p # # 2.6XeX7Xs.6X",
"gXgXgXgXgXgXgXgXgXgXgXgXgXgXgXgXgXgXgXqXgXqXgXqX0X9XgXgX9XbXBX@X;XW E }.d.+X,X,X{.D A c = %X%.{ 9 { ! g D D B m Z v x C J % X.K X X u s.tXCX3.# # # . u.yX7X4..X",
"gXgXgXgXgXgXgXgXgXgXgXgXqXgXgXhXgXhXhXhXgXhXgXgXfXfXvXgXqXuX&X{.*.( W >XCXCX|.| =.| 2X%X; $.%.Y - q q <  .;.Y 8 6 * , > k + D f w }.u.p.5.vXD.2.t r $ d.yXqX0XuX",
"hXgXhXgXhXgXhXhXgXhXgXgXhXhXhXhXhXhXhXjXgXhXhXdXfXfXdXfXqXOX0.A T ( R }.ZX@X+.7 W 3 h 1X6 6 Y 1 5 e e e M  .U < O o   0 J 9 f 9 E }.s r <._.gX7.a p a 0XqX0X0XuX",
"hXhXhXhXhXhXhXhXhXhXhXhXhXhXhXhXhXhXhXhXhXhXhXhXdXfXkX9XtX2.u d =./ :XX.9.*X|.+ w e Y { 7 U U 5 E |.K $.m n D 9 o % o h [.p % 9 2 s l t.p.jXfX6.t $ 2.rXeXbXcXMX",
"jXhXhXjXhXhXhXhXhXhXcXhXhXhXjXhXkXhXhXhXhXhXhXhXhXfXfXwXSX4.i {.+.:X<X|.% {.d   9 o.D e W U U Y e 0 K S v * ; H + % % d |.2 $ z 2 @ l y.qXwXmX6.. . 4.pXpXbXbXbX",
"hXhXkXhXkXhXhXhXhXkXhXhXhXhXhXhXkXhXcXhXhXhXhXhXcXfXcXcXfXVXVX0.i.}.}.|.W ~ <   k d A O.@.8 8 e 5 - 6 A > , : k % + + ! +.O 2 u.$ X u.OX2.uXuXNXj k oXVXMXlXlXlX",
"kXhXhXkXhXjXkXhXkXjXhXkXkXjXhXkXhXcXjXkXhXhXcXkXfXcXjXvXfXVXw.w.uXOX+X>X=.T Y E ..% o o.0 ; 6 - - ; > - A J {.{.% O p ! ! O 4.u.@ @ u.+X2.6XuXuX4.i 1.r.uX0X0XkX",
"kXkXkXcXkXkXcXkXkXhXcXkXcXkXhXcXkXkXkXkXhXkXhXkXwXwXkXfXMX6.H r.MXfXyXg < 8 6 M e 2 < {.O.$.; o ; S , , , u {.}.4.4.z + + d 9.7.@ $ 3.u.3.s.uXMXt & i C uXwXwX0X",
"kXkXkXkXzXhXzXkXkXkXkXkXkXkXkXcXkXkXkXkXwXkXzXhXwXwXzXzX0XuXVXaXMX0XSXu.2 5 ; 6 g i.! }.*X{.> A Z , > f u @X,X+Xj r XX! d k 1..X. $  XyX3.7.4.j y q.w.r.uXwXwXkX",
"kXkXxXkXlXkXkXkXcXkXkXkXzXkXzXzXkXzXkXwXkXwXzXkXwXwXzXzXlXeXiXbX0XmXwXs.s.XX[.XXOX+XtXpXXX X4.k u [.aX@X.XFX+Xl @ # 4.4.4.j s.aXO $  XtXs.bXj r s.8XMXiXwXwXwXzX",
"xXxXkXlXkXxXxXkXzXzXkXzXzXkXzXzXkXkXkXzXwXkXkXwXzXwXzXzXzXzXzXzXfXrX9Xs.wXwXwXxXtXzXrXwX0XzXmX8X.XpXFXiXtXtXt.p # a r r aX8XmX8X. . OXDXtXbXaXaXFXDXCXtXtXxXzXwX",
"xXlXlXlXzXlXxXxXzXxXzXzXzXzXzXxXzXwXzXzXlXlXlXeXwXzXzXzXkXzXzXkXtXSXSXxXxXzXzXkXlXlXxXxXeX0X0XpXpXaXeX8XyXyX2.u.yXFX Xu.ZXyX XZXj @ u.DXnXeXpXmXbXzXtXtXrXxXxXDX",
"xXlXzXlXlXxXxXkXzXzXxXzXzXzXxXzXzXzXzXzXeXlXlXzXzXzXzXzXzXwXzXzXxXzXwXzXxXxXxXxXxXxXxXnXmXmXrXeXtXtXiXiXrXxXeXDXDXiXmXpX X% 4.ZXd . . y 9XmXuXaXrXzXrXrXrXSXxXxX",
"xXmXlXlXlXlXlXnXxXxXkXzXxXxXxXxXxXxXlXlXkXlXlXlXxXzXzXzXzXzXDXzXxXzXlXzXlXxXxXxXlXxXbXxXxXnXlXxXiXxXrXiXbXrXbXbXmXbXpXtX2.. . $ $ @ r s.eXmXFXMXHXtXDXxXxXDXzXzX",
"xXlXlXxXlXlXlXlXxXxXxXxXxXxXxXxXlXlXlXlXlXzXlXlXzXzXzXzXzXzXwXzXzXzXzXzXxXxXxXxXxXbXlXlXnXlXbXlXxXxXrXrXiXiXbXbXbXbXZXpXs.$ a yXj 2 ZXHXDXHXpXq.6.rXxXzXDXxXxXDX",
"xXxXlXlXlXlXlXlXxXzXkXxXxXkXzXlXzXlXlXxXlXlXlXlXzXxXzXzXzXzXzXzXzXlXzXlXxXxXxXzXxXzXlXbXlXlXlXcXcXxXzXrXiXbXmXMXpXpXZXpXpXyXpXFXd j DXDXmXmX X# # 9XDXxXDXxXxXDX",
"xXxXxXlXlXlXlXlXzXxXxXkXxXxXlXzXlXlXlXlXlXlXlXlXzXzXzXzXzXzXzXzXzXzXlXzXxXxXkXxXlXlXlXlXlXlXlXxXSXcXxXrXiXbXMXbXpXpXpXtXpXDXiXpXl j FXbXcXlXmX6.6.xXxXwXxXDXxXnX",
"xXxXxXxXlXxXzXzXlXzXzXxXlXlXlXlXkXxXxXxXcXxXxXkXxXkXzXeXwXxXxXxXxXxXxXxXlXlXlXlXlXlXlXlXrXlXzXxXxXcXrXrXbXlXbXbXiXpXpXpXrXiXrXDX7.a DXDXkXxXbXiXxXxXDXtXxXDXrXrX",
"xXkXzXkXlXlXlXxXlXxXlXzXlXlXzXlXxXkXkXxXlXxXxXxXxXzXzXxXxXwXrXxXxXxXxXxXlXlXzXlXlXlXlXlXlXlXlXxXcXxXlXrXiXiXbXbXrXeXrXpXrXDXxXFXl a DXxXlXnXnXnXDXrXDXxXrXrXxXDX"
};
