/* XPM */
static char *_0db2ef3d151441ad800939912e2856e8W7Qgms4Ohbuf4dp[] = {
/* columns rows colors chars-per-pixel */
"50 50 256 2 ",
"   c #04041B",
".  c #0B041D",
"X  c #030A1C",
"o  c #0C0B1C",
"O  c #050515",
"+  c #12031E",
"@  c #120A1E",
"#  c #180716",
"$  c #00101A",
"%  c #0D0712",
"&  c #020323",
"*  c #0C0623",
"=  c #040B22",
"-  c #0C0A24",
";  c #020E29",
":  c #0D0C2B",
">  c #08052B",
",  c #130522",
"<  c #1B0422",
"1  c #120925",
"2  c #120C2C",
"3  c #1A0D2D",
"4  c #190729",
"5  c #021124",
"6  c #03132B",
"7  c #0C132C",
"8  c #001A2C",
"9  c #091627",
"0  c #13122B",
"q  c #18122A",
"w  c #000C37",
"e  c #0C0D33",
"r  c #030D3B",
"t  c #0B0D3B",
"y  c #130E32",
"u  c #1B0E32",
"i  c #1A0636",
"p  c #031435",
"a  c #0D1234",
"s  c #001C33",
"d  c #0D1B35",
"f  c #01163B",
"g  c #0F143A",
"h  c #021B3B",
"j  c #0C1B3C",
"k  c #141234",
"l  c #191235",
"z  c #14153B",
"x  c #1A153B",
"c  c #151A3C",
"v  c #1A193D",
"b  c #171B34",
"n  c #220938",
"m  c #231839",
"M  c #331A3B",
"N  c #002A3D",
"B  c #022438",
"V  c #16233B",
"C  c #22223C",
"Z  c #011C43",
"A  c #011C4B",
"S  c #081644",
"D  c #151542",
"F  c #1A1643",
"G  c #151C43",
"H  c #1B1C42",
"J  c #141A4A",
"K  c #1C1D4B",
"L  c #1C1548",
"P  c #041D53",
"I  c #1C1950",
"U  c #180F44",
"Y  c #2D1242",
"T  c #221C44",
"R  c #221E4A",
"E  c #241845",
"W  c #241A55",
"Q  c #351344",
"!  c #022344",
"~  c #042847",
"^  c #1C2145",
"/  c #1D224B",
"(  c #1A2A4B",
")  c #142548",
"_  c #003247",
"`  c #002C55",
"'  c #022857",
"]  c #1D2252",
"[  c #182C57",
"{  c #00325D",
"}  c #023856",
"|  c #1A3254",
" . c #19304F",
".. c #222244",
"X. c #23234B",
"o. c #28264B",
"O. c #242453",
"+. c #2A2955",
"@. c #242759",
"#. c #242A5C",
"$. c #2C2D5D",
"%. c #282656",
"&. c #342B55",
"*. c #283558",
"=. c #333258",
"-. c #2E2B4C",
";. c #032A64",
":. c #1A2D64",
">. c #013965",
",. c #1C3465",
"<. c #123973",
"1. c #2A2D62",
"2. c #282362",
"3. c #352966",
"4. c #243364",
"5. c #2C3164",
"6. c #283869",
"7. c #323568",
"8. c #283A75",
"9. c #2F3078",
"0. c #402B6E",
"q. c #004646",
"w. c #00465E",
"e. c #174C58",
"r. c #23525C",
"t. c #004561",
"y. c #00446C",
"u. c #054A65",
"i. c #014677",
"p. c #005A79",
"a. c #135B7B",
"s. c #114F6B",
"d. c #284D66",
"f. c #0E6976",
"g. c #296178",
"h. c #015A84",
"j. c #004D84",
"k. c #01678A",
"l. c #047288",
"z. c #036693",
"x. c #07799A",
"c. c #1B6B8F",
"v. c #2B7291",
"b. c #027BA2",
"n. c #0477A6",
"m. c #037CB1",
"M. c #0E73A9",
"N. c #3E7FA9",
"B. c #305C8B",
"V. c #0A7DC0",
"C. c #02849B",
"Z. c #1A8A9D",
"A. c #10979A",
"S. c #0489A8",
"D. c #1A84A9",
"F. c #0391AB",
"G. c #0493B6",
"H. c #1290B4",
"J. c #2384A6",
"K. c #2C91AF",
"L. c #348CB8",
"P. c #3996B6",
"I. c #3391AE",
"U. c #0AA3B8",
"Y. c #27A6B7",
"T. c #2FABB2",
"R. c #238393",
"E. c #4A8C98",
"W. c #4298A8",
"Q. c #4385AF",
"!. c #46A4B9",
"~. c #56A5BA",
"^. c #4EB1AE",
"/. c #6BA5A9",
"(. c #118ECC",
"). c #3597C6",
"_. c #289BD4",
"`. c #05B8CD",
"'. c #05AAD6",
"]. c #05BDDB",
"[. c #19B8D7",
"{. c #13A8CD",
"}. c #25A6C9",
"|. c #36AEC9",
" X c #38B3CC",
".X c #2AB9D9",
"XX c #35B6D8",
"oX c #2EAFCB",
"OX c #01ABE5",
"+X c #01BBE4",
"@X c #04BBEB",
"#X c #18BBE9",
"$X c #06BCF5",
"%X c #18B8F7",
"&X c #25B9E7",
"*X c #30B7EF",
"=X c #449CC2",
"-X c #46B8D7",
";X c #4FB3CE",
":X c #69BBCF",
">X c #08C7DA",
",X c #19CBD9",
"<X c #32C4DC",
"1X c #00CCE5",
"2X c #01C4EB",
"3X c #0DCBED",
"4X c #08C7E9",
"5X c #15C7E9",
"6X c #06D5EB",
"7X c #02C4F3",
"8X c #01CBFD",
"9X c #06C8F8",
"0X c #13CDFC",
"qX c #1CCCFE",
"wX c #15C7F3",
"eX c #02D4FD",
"rX c #0AD4FB",
"tX c #16D4F9",
"yX c #27C6E6",
"uX c #3AC6E8",
"iX c #24D2EA",
"pX c #36D0EA",
"aX c #27C9F7",
"sX c #36D1F1",
"dX c #3BCBF3",
"fX c #10E1FF",
"gX c #2FEBFA",
"hX c #6DCED8",
"jX c #59C3E9",
"kX c #47D9F4",
"lX c #52DBF8",
"zX c #4FCBF1",
"xX c #62CAE4",
"cX c #76C9E4",
"vX c #7CD7E4",
"bX c #65DCFA",
"nX c #7BDDFC",
"mX c #7DCCF5",
"MX c #51E7FC",
"NX c #67E7FC",
"BX c #77E7FF",
"VX c #7BFBFF",
"CX c #76FAFF",
"ZX c #6BF4FF",
"AX c #4DC6CE",
"SX c #90BAD3",
"DX c #86D9F3",
"FX c #88E9FD",
"GX c #98EBFF",
"HX c #85FAFF",
"JX c #96F4FF",
"KX c #97FBFD",
"LX c #82F3EF",
"PX c #A7FBFF",
"IX c #B4FAFF",
"UX c #A9EBFF",
/* pixels */
"= : - - , , + + + . O O O O O X . O # #   > i i + , X 5 g & 2 - * : 7 2 : : 7 k k k k b v H v H H H ",
"= 7 - 1 , , + + . . . . X . O . O , # O 6 & i i # < O   v e . 0 - : : 7 7 a 7 k z z z v v H ..v G ^ ",
"- = 1 1 , , + + @ . . . o O . . < % # % d   &   % # 9 o i n u 2 : 0 0 y 2 2 k z l z c b v v v ^ ^ / ",
"- * - , , + * . . . X . . . . @ < + @ 5   s u.g.V 9 $ b , n b = : : y 0 k k k 0 b l z k v v v H X.X.",
". * - . . . . * o . . . . . . + . o X = t.S..X.XoXl.6 f U y 7 9 : 2 2 2 2 k y k z l c l c v v H / X.",
", , , , - - - . o   . . + + . + .   & ~ -XsX5X3X5X<Xy.r J F 9 V k y y y k u z y x x b x v v H V v H ",
", , , * - = . = * . . , + . , , 4 > Z c.uXpX[.#X[.zX=X~ w D e : k y y l l x l l l x c x v F v H c H ",
"< + @ * . *     * . . , , . . , * & A ~.|.HXzXb.VXlXFXB.w D x l x x b l x x x l l z b x c v c c ^ / ",
"< < , . X X = - *   4 ,   , *   o O r.GXI.JX XY.HXHXJXE.9 2 C b b ..z H v y T m x x x v v v v F H H ",
"< + , - - = = . 7 . . 1 1 * 0   $ O E.PXv.cXJ.|.AX;XR.N $ b 9 0 ^ : H k x H X.y x x z v v v V V v H ",
"+ @ , - - = = = * 3 * , - & d 5 $ $ f.T.w.c.I.y.y.p.Z.P.W.r.6 V ) j ^ G X.c z v x x x v v v v v v F ",
", , , - * = * =   3 4 * - ; 5 $ 9 f.F.U.x.p.D.w.XX.XNXKXKXvXv.p 6 *.) ^ +.c : o.H v v v b v b c v v ",
"< < - - X = = * , * 4 > a 7 O _ D.pX5X5XsXS.B oXyX[.lXVXlXpXaXG.f Z o.j V ( H F H T v x l c b z v v ",
"4 1 1 - - X * * 4   3 1 7 ; 8 ~.VX5X+XtX5Xx.! }.iX`.zXVXZX>X7XaXc.& | ) ( o./ c v v v v c x c c v H ",
", 1 , = = - - , 4 < u * ; = e.UXnXNXyX#XdXz.u.C.<XlXbXFXCXdX0XwXcX6.h  .*.( c H H v v x z x c v v v ",
". o - - 7 = : , , 3 , > d s s.DXJXnXyXsXl.l. Xu.bXBXFXHXNX&X5X&XDXSX;  .( *.K K ....v x b l z z v x ",
"o - 1 : e > i 4 q 1 , 7 ) N P.-XbXHXNXY.N vXLXw.:XUXnXVXgX,XtX.XnXIXr.B  .7.W W E ^ C C n u D c l l ",
"o o : : e > i 4 q q 0 = p ~ K. X|.bXAXq.^.KXKXR.f mXPXlX,X>X'.CXKXPX/.$ ) G 3.2.K c b b M Y z f a y ",
"o @ 1 e e e y 2 @ q q 0 z f ` y.i.z.R.vXPXJXHXAXz.Z M.-XXXuXzXjXBXcX:Xr. .$.0.W ( B V b Q Y c p c x ",
"@ @ 4 2 w e a k q q 7 : x A w i._.zXIXFX~.!.bXpXzXn.{ u.k.p.` { _ w.e.d.V =.W W ) ) ( ..Y Y j h a k ",
"@ 1 q 2 e p a k 9 7 - 0 u J A K.aX&XjXc.;XP.f.,X5X>XiXS.u.!.w.K..Xb.6 = c &.$.#.) ] [ X.E E G c a k ",
"@ < 4 2 a a a k 6 ; 0 b F D S ).wXqXb.:XJXKXU.F.6XtX].U.NXJXhXZ.yXuX{ ^ o.X.[ 4.[ ] / ] W %.^ c z x ",
", 1 2 3 a p 7 k V 7 7 : F D ~ -XwX3Xk.FXI.^.ZXS.>X5XiXS.xX^.KXA.].dX` C o.-. .' [ @.O.@.#.[ ^ v z z ",
"- 1 2 2 : a e a 7 d ^ d k w `  X3X].H.PX^.hXCXF.aX5X[.U.xXT.LXT.3XwX{ m &.=.,.d.#.1.7.1.2.] G H v F ",
"9 0 2 2 y k y y k a d V p ! _ oX1X6XF.;X:XcX-XH.&X@X9XG.H.Z.Z.C.4XaX>.H -.&.*.,.4.4.5.4.2.@.) G c v ",
"9 - 2 2 2 y u u 7 c j j g ~ q.oX6X1XF.H.x.x.n.m.qXtX2X>XyXoXlXMX3X*X' @.&.-.4.,.4.4.5.1.@.R G G z z ",
"6 6 2 : 2 3 n n y g j j S ! N T.4X8X3XiX5XyXqXqX8X8XeX8X0XwX1X3X9X&X~ $.=.$.6.4.5.5.$.#.W W K c a z ",
"6 9 : 1 2 1 n u x g p ) / h 8 H.qX8XeX1X1X4X8X$X8X8XeXeX7XrX@X7XwX}.A -.-.5.8.:.5.$.+.O.] / F z y y ",
"7 7 0 2 - 1 i u z G G / R z 6 k.aX7X7X1X7XrXrX8XeXeX7XrX@X@XtX0XaXD.f &.#.:.8.:.3.&.Q X./ ) F x y y ",
"p a 3 2 2 2 3 k a ) ( F n F s } *XqXrXeX0X9X$X8X8XfXrX+XG.OX9XOXdXp.Z =.7.:.8.9.3.-.o.../ H x x y e ",
": 0 u 3 2 7 k l c G X.E n Y c f m.aX2X1X2X0X9XrXrX3X[.C.S.aX0XqX}.` | *.6.8.9.9.&.o.C C ..E D g e 2 ",
": 2 l y 0 k k c ( D / &.Q Y m Z ;.*X3X3X0XgX0X'.'.G.p.x.yXwX7XaXx.f d.[ [ 6.9.2.W X.C ..E E z e y 2 ",
": 0 z k a z F D O.O.R R E E m j w z.aX4X>XgX@Xi.z.k.}.,XtX+X0X_.' 4.7.4.$.7.1.%.W o...v m x b y 2 2 ",
"z c z z D F L D W R O.R H x v c Z s oXtX>X1XwX&X&XNXZXlX].tX*Xi.;.5.5.1.5.$.#.+.X.o.R R v x y 2 - 2 ",
"z c c z G D D U K R O.R F k v ^ _ w.` }.gX6X1X0X&XBXFXBXsX.X>.P 6.1.@.1.5.#.X.+.X...R m x x 2 2 : 1 ",
"z z z c F L J J L K R K z z c V 8 E.L.{ F.,X4X5X*XnXGXPX;X>.' #.5.@.O.@.$.@./ +.R T v v x k 2 : , - ",
"c z c H / O.] R D K K K H v x h N W.;XM.P h.H.oX-XjXhXc.w ' 7.3.2.$.@.#.$.+.X.+.H F x x l u 2 2 * * ",
"a g G G K K K O.J J F F K H v h } hX!.A P S { w._ } _ f.d.L %.&.#.1.+.O.%.%.R R v x x k y k 2 2 * * ",
"g g z G D S D K K F F J H F H j } g.h <.;.<.*X'.`.U.>XAXh.#.=.-.-.+.%.O.X.R F v F x x y y y : : * * ",
"d z G G z g D J K K F c D v H c 8 B ~ S ;.z.&X0XeX1X4X[.P.~ ( -.&.%.R O.+.R T R v x l y 2 2 2 - * - ",
"g g z z g D D K D D F F D F H ^ d -.T @.' L.G.'.%X$X%Xm.M.a.B +.X.X.R R X.T R m x l l y 3 2 : : * X ",
"e g g g g z z D D z z U z x H H v u E D >.).h.(.%X$X*XV.h.!.{ [ X.X.T R T v v x l l l k 0 2 : - * . ",
"a k a g t y z z z z z z x z x x %.U X.B a.L.{ _.@X$X%XV.;.Q.<.S K T T m m x x l l l k y y 1 1 * * * ",
"e a y e z e a k y z k z u z z x L W z s >.s.` ).5X$X%X(.;.<.4.S K m E x x x l k y 3 3 2 2 1 2 * . * ",
"y y a 2 k k a k z k k k k x y x y E 2 0 J S ;.).*XOX%XV.;.t m M m m x x l l l k y 2 2 2 1 1 * * . . ",
"e e a : : k 2 2 l u y y l y x y L k m m U P ;.).&Xn.%XV.A o.< M m x n m l l y 3 2 2 2 2 1 > * * . . ",
": > : 2 0 k 2 2 y 3 y 2 y u y y D r m q e ) ~ I.}.i._.(.f o.q m l l l l l u l y 4 2 2 * - - * * . . ",
"* > 1 - 2 2 2 : k 2 1 2 2 y y k r D 4 m z B ! W.K.' _.).s 9 V 9 3 l u l l u 3 3 1 : 2 1 - * * . . . ",
"* 1 * > * > 4 * y > 2 2 2 2 y 3 : e i i k 8 _ E.N.' M.L.h k k 7 l 3 3 3 3 2 q l : , 2 , * * . * . . ",
"* > * > * 2 2 * 4 > 1 2 2 > 2 2 - 2 n u 7 8 ! v.B.S z.v.; 0 k z k 3 2 2 2 3 3 3 1 - 1 1 , . . . . . "
};
