/* XPM */
static char *d73d35f3a6fa4391bf3b2baa4ee4f129HmVUaq4KzyOgWcJb[] = {
/* columns rows colors chars-per-pixel */
"50 50 256 2 ",
"   c #030416",
".  c #03031C",
"X  c #0C051D",
"o  c #05091B",
"O  c #0C081E",
"+  c #090315",
"@  c #11041E",
"#  c #11061C",
"$  c #06010B",
"%  c #020422",
"&  c #0C0623",
"*  c #030C25",
"=  c #0D0A24",
"-  c #020D2A",
";  c #0D0C2B",
":  c #08042A",
">  c #120523",
",  c #110924",
"<  c #13062A",
"1  c #120C2C",
"2  c #1A0C2D",
"3  c #01122D",
"4  c #0D112B",
"5  c #061628",
"6  c #12122D",
"7  c #17182A",
"8  c #020D31",
"9  c #0E0E33",
"0  c #050A39",
"q  c #140E32",
"w  c #190E32",
"e  c #130D39",
"r  c #011432",
"t  c #0C1235",
"y  c #011B35",
"u  c #02143A",
"i  c #0E123A",
"p  c #001A3D",
"a  c #0C1B3D",
"s  c #0C1932",
"d  c #141234",
"f  c #191335",
"g  c #141936",
"h  c #14143B",
"j  c #1B153B",
"k  c #151A3B",
"l  c #1B1A3D",
"z  c #1B1A35",
"x  c #21092A",
"c  c #21183E",
"v  c #24153A",
"b  c #261030",
"n  c #01233B",
"m  c #04293A",
"M  c #15213D",
"N  c #1A253C",
"B  c #002B32",
"V  c #25243D",
"C  c #240C1A",
"Z  c #011B44",
"A  c #001C49",
"S  c #051746",
"D  c #151541",
"F  c #1A1642",
"G  c #151B42",
"H  c #1B1B43",
"J  c #1C1D4A",
"K  c #1D164B",
"L  c #011B56",
"P  c #091653",
"I  c #231641",
"U  c #221B43",
"Y  c #2A1B45",
"T  c #231D4A",
"R  c #2C1B48",
"E  c #261D54",
"W  c #2B0E44",
"Q  c #032343",
"!  c #052948",
"~  c #1B2045",
"^  c #1E224B",
"/  c #162547",
"(  c #023349",
")  c #082857",
"_  c #1C2352",
"`  c #1C2C5A",
"'  c #1A2953",
"]  c #033756",
"[  c #163558",
"{  c #23224B",
"}  c #27274A",
"|  c #242453",
" . c #2A2454",
".. c #2B2B54",
"X. c #252A5C",
"o. c #2B2B5C",
"O. c #262657",
"+. c #29365A",
"@. c #34355B",
"#. c #24334D",
"$. c #1A2C61",
"%. c #033A66",
"&. c #183665",
"*. c #0D2261",
"=. c #2C2D63",
"-. c #272664",
";. c #233363",
":. c #2C3166",
">. c #2B336B",
",. c #283A68",
"<. c #353669",
"1. c #383576",
"2. c #563144",
"3. c #04464B",
"4. c #094C5A",
"5. c #024868",
"6. c #1C4468",
"7. c #005D6B",
"8. c #005567",
"9. c #034875",
"0. c #055876",
"q. c #1A547D",
"w. c #305271",
"e. c #036778",
"r. c #06797C",
"t. c #116474",
"y. c #21617D",
"u. c #304352",
"i. c #494B70",
"p. c #6F4E70",
"a. c #8C445C",
"s. c #003C85",
"d. c #004C8D",
"f. c #055688",
"g. c #075B90",
"h. c #134889",
"j. c #3A5A80",
"k. c #026888",
"l. c #1C6685",
"z. c #03679B",
"x. c #007C9A",
"c. c #13718C",
"v. c #237995",
"b. c #2D6D90",
"n. c #027CA5",
"m. c #0070AA",
"M. c #2D79A3",
"N. c #4A7790",
"B. c #63748E",
"V. c #A57698",
"C. c #C67A95",
"Z. c #028895",
"A. c #1B8497",
"S. c #0F868D",
"D. c #2C8997",
"F. c #27848C",
"G. c #0687A5",
"H. c #1788A8",
"J. c #0587B6",
"K. c #0395B6",
"L. c #0D97AB",
"P. c #2886A9",
"I. c #2A96A8",
"U. c #2A98BA",
"Y. c #3690B0",
"T. c #08A4B6",
"R. c #09A1AF",
"E. c #37A6B9",
"W. c #38BABE",
"Q. c #29AAB2",
"!. c #4F8EAA",
"~. c #54ADBB",
"^. c #6BAABB",
"/. c #538E9B",
"(. c #0498CC",
"). c #0095CC",
"_. c #3197C2",
"`. c #02A6C8",
"'. c #00B6CA",
"]. c #06A9D8",
"[. c #05B8D7",
"{. c #18BBD8",
"}. c #15AFCF",
"|. c #2CB8CC",
" X c #3DB6CD",
".X c #26B8D7",
"XX c #34B6D8",
"oX c #35A7CE",
"OX c #02BEE2",
"+X c #03B7E9",
"@X c #18BBEA",
"#X c #03BBF7",
"$X c #15BDF4",
"%X c #14AFEF",
"&X c #23BCEA",
"*X c #37B8E6",
"=X c #23BBFC",
"-X c #2CAFEE",
";X c #419EC7",
":X c #6A9EC3",
">X c #52A9C8",
",X c #4EBDDC",
"<X c #59BAD8",
"1X c #4EADCB",
"2X c #6AB7D5",
"3X c #4BBAE5",
"4X c #04C1CF",
"5X c #0BC5DC",
"6X c #18C6DA",
"7X c #39C3D9",
"8X c #2DC6D5",
"9X c #03C6E7",
"0X c #14C8E6",
"qX c #06C8F9",
"wX c #17C7FA",
"eX c #01D3F6",
"rX c #04D5FB",
"tX c #1BDBFF",
"yX c #18D2FB",
"uX c #14D5E8",
"iX c #27C8E5",
"pX c #39C6E4",
"aX c #27D7EB",
"sX c #31D6E8",
"dX c #29C9F6",
"fX c #28D4FA",
"gX c #37D5FA",
"hX c #37C3F7",
"jX c #1FE2E8",
"kX c #3AE4FD",
"lX c #48C4D0",
"zX c #71CDD2",
"xX c #45C7E6",
"cX c #55DBFC",
"vX c #4ED0EF",
"bX c #63DBFE",
"nX c #73D0EB",
"mX c #46E9FC",
"MX c #5BE6FE",
"NX c #58F8FF",
"BX c #6CE7FD",
"VX c #78E5FC",
"CX c #79F8FE",
"ZX c #7AEEE9",
"AX c #D192B2",
"SX c #80D5DC",
"DX c #8DE5EE",
"FX c #98E8FC",
"GX c #83F4FF",
"HX c #89F7FD",
"JX c #96FAFD",
"KX c #89F7EC",
"LX c #A2EDFF",
"PX c #A9FCFC",
"IX c #B2FCFF",
"UX c #91D8F4",
/* pixels */
"= = O O # # # # @ + + X +     O X + C #   ; w . @ 7   o 7 X x x & ; 4 4 4 4 6 6 6 w f z l H H k H ~ ",
"= = , , # O # # @ @ # + X o   o + + # @ < . % g O   5 6 = b > < = = ; 4 = 4 6 7 d f j z c l H ~ H G ",
"O = O = # # O # @ + X X X + o O   5 = . & 9 - * m o   1 & V ; 4 1 1 1 ; 5 4 6 s f 7 j z G H H H ~ ^ ",
"O O O O O O X X X X + O O + o o 5 o * h : ) 7.E.I.t.r - t - s - ; 1 d w 6 6 6 6 d g f f z l l H ^ } ",
"X X O O O O X O O X X @ X X X X o * 0 : %.oX7XaXaX6Xe.p p 8 l < w w < < 6 6 g 4 g g g d k k l H ^ { ",
"> # # = O O O O & o X X @ @ @ >   % S A E..X{.5X4XuX|.5.8 G F I w w w e w 6 d 4 g g g z j G H H l G ",
"@ > > # O O O o & o X @ @ X @ @ X 2 : &.>XbXVXK..XcXVX!.r f < w w w w f f h f g g g g M l l H U H H ",
"@ @ @ @ O & o . & . X & > & > @ # # % :X>X<XJXn.cXGXHXFX/ = f j h h j j j j k f 6 g g g k z l l ~ ~ ",
"> @ @ # O O o & . = & , & < & X C $ n LXzXY.CXZ.BXBXVX/.5 7 7 N H ~ i h U f f z g g g g k l l c H H ",
"@ @ @ , , & & O & = & 6 % & & , $ 7 m >X>X5.W.Z.x.e.7.t.3.B B 5 / 0 ^ ~ h j U f g g g M M j U H l H ",
"X # , , , & & & = ; : 4 . ; : * s * 8.G.x.! U.8.9.(.oXVXJXDXY.y u [ S { U U j j k g g k l l c c l H ",
"O O , , > & X & & = ; : % g - % 3 D.XXiXgXK.0.0.*X*X3XBXCXBX3XU.A ( ! / H T e c l l M g g l j j l l ",
", = = # = > > > & : ; ; * r * ( ~.vX$XyX[.aX] g.vX%X&XNXNXsXwXhXv.8 [ p F T I v c l l g g h j j l l ",
"= = = = & > > < < & * g - % 3 N.PXMX@XqXuX6X] 5.*X-XgXNXNXmXwX+X3Xl.u ) | F R v U l l z g z z l c G ",
"O = = = > > < > < < ; 3 r * y ^.FXBXmX&XpX7.F.7.U.bXbXCXGXmXwX$X,XFX] ! +.T R Y U c l g k z z j l l ",
"o = = = , , > < > j : . y ! ! ^.nXGXMXxXD.3.JXr.0.JXGXVXCXvX0X@X,XFX^.r ` ..} v Y Y l z d g f f j j ",
", ; ; = = = = = > f w : / 3 w.2XxXMXHXE.B zXKXzXB 2XHXGXmX0X[.0XVXUXFX] m @.~ ..v { R Y k g g f f f ",
"< , 1 ; - * = < 2 b 2 : M 3 ( t.k.Z.L.c.^.PXKXZXA.y oXcX{.sXiXMXJXIXFXl.r #.k V { v v v k M g 7 d 6 ",
"< < = 4 4 = = 7 2 2 1 ; / 5 3 m 8.Z.<XLXIXSXDXCXXXK.L d.U.Y.P.0.0.v.v.!.[ #...} T I W I ~ M f 6 f j ",
"< < 1 ; 4 5 6 7 < < w t a y 5 ( .XiXVXUXc.F.F.I.iX$X-Xg.( ( ( ( c.8.B Q ! G @.H H R  .} ~ a h f d d ",
"< 1 ; 4 ; 4 d w b < w f s p y 5.7X{.*Xn.<XPX^.r.hX#XfXfXZ.ZXKXA. XlXI.n u h @.o.J | | | / G G c d e ",
"< < 1 4 4 4 4 d w < 1 h k a y 0.pXaX(.n.HX~.DXF.].tX9XT.W.ZXZXW.L.7XP.Q ;.<. .D _ _ _ _ ' ' U F l h ",
", ; 1 4 4 d 4 w w 1 q 9 k Q r l.6XyX(.,XHX8.JXQ.`.eXtXK.zXD.ZXHXR.iXH.A $.O.-.<.X.| _ ` ` ' J F q h ",
"< 1 1 1 ; ; q w 1 l H d i a 3 l.fXOX(.hXHXZXJX8XT.rX9X`.R.E.Q.Q.R.sXP.A >.O.i._ -.:.,.;.` / U I H l ",
"1 1 6 ; 6 t 1 d j d l l i a 8 l.fX+X@Xn.Z.Z.G.r.4XrX$X@X`.K..X6X4XsXH.A >.-.<.-.:.:.,.&.` _ T I F l ",
"1 1 ; 1 6 d q d d 9 h h a ~ u q.=XrXqXOX6X5X`.9XeXeXwX=X$XfX6XkX6XiXM.S >.-.=.:.:.=.;.;.` _ T F j h ",
"4 ; ; ; ; q d j e i k h k ~ t 5.&XqXrXeX9XyXqXwXqXyX$X%XwX$X].{.0X8Xl.P >.=.>.=.>.:.$.` _ J K I e d ",
", 6 1 ; ; 1 e d l h H h G H ; ! vXOXeXrXqX$XyX#XqX#XwX$XgX).n.dX[.pXs.*.>.1.>.;.<.=.-.` _ J I h q e ",
"6 1 6 1 ; < e e F G H k H G 9 p J.yXqX).-X=XyXeXeXeX9XuX}.g.].0X0XXXL -.=.,.,.X.=.=. .E _ H F j e q ",
"4 6 d 1 1 9 e h G k ~ G H h d p e..XwXJ.d.m.{.0XaX}.sXQ.5.U.fX9XsXH.S 1.:.X.;.,.o.E O.E T H j f ; ; ",
"= 6 d w q q d h H G ^ ~ ~ d c a r _.fXwXiXZ.7.e.y.w.4.w.i.w..X0X6X0.*.1.:.:.[ ,. . .E T T U h d q 1 ",
"= 4 d q q q h D ^ G } ^ { e { G 8 9.*X[.5XkXZX3.#.p.2.2.AXw.U.dXJ.A 1.E :.<.` `  .E E T Y U j 6 q 1 ",
"; d h q e h F D  .{ U H { U l j T 0 z.gXOX9XjXD.i.AXC.a.C.i._.XX) $.>.=.=.:.+.{ { { U U l l f 1 1 1 ",
"h k h h h G F D | { { J U H j l v u %.K.yXeX9XxXi.p.C.AXV.i.2X5.) =.:.=.=.+.o. .} { { U l z w 1 1 , ",
"h k k D D G D D K { { { l h F l 5 3.E.( `.fXOX@XoX6.p.p.u./.[ 0 X.-.=.o.X.O.O.O.{ { U H l f q ; < , ",
"h h D k F F K D F J T K F h l ~ B 3.lXR.%.z.&XgX XzXB.B.y.n i <.:.X.X.o.O.| {  .T H U l j d 1 ; : = ",
"h D G J J ^ _ J D J H K F F F / y v.lXoXP S Z 5.e.r.t.] ! ) j.-.:.o.O.o.o.O.| ..H F l l f w q ; & & ",
"h a G G J J ^ _ J J F J H H G G y !.D.r ` $.5.c.4.7.e.E.M.) $.<.o.O.O...o.} U { l h j d w q 1 ; & & ",
"i i D D G h D ^ J G G F F H F / 5 ( 5 6.L S oXdXwXtXqX[.vX5.n @... .O.| | T U H l j j q d 1 1 ; & & ",
"a h G G D 0 D G J J F G D F H ~ 5 N M i ) 9.oX].qX+XrX9XL.v.m #..... .| { { { H l j d w 1 < ; ; & & ",
"i D i h h a G F D h F F D G H T D o.R I Q l.P.g.=X#X#X+Xd.oX] ! { } T T { U U U f f f w q 1 ; ; X X ",
"i i i h i h h k h h k h h D G K K K W R u /.h.g.dX#X#X=Xd.b.N.[ ^ Y { U U H c l f f d d 1 1 < = & O ",
"i i i t 9 9 d h i h h k h h l F T K H / y N.) g.@XqX#X=Xs.*.w./ ~ U U U c j j f f w w 1 1 1 ; = & & ",
"i 9 e t 9 d d d d h f f j e j e K _ M M n [ L g.$XqX#X-Xs.P M N H U c l j f f d e w 1 w 1 < > = X & ",
"9 9 q 9 q 6 d 6 d d d f w h f e e ^ y n M 8 ) g.&X].].-Xh.) 1 v c v v z f f f w d 1 1 1 = ; & & X X ",
"9 ; ; 9 d 6 1 4 6 d 6 w f f f f e h g g z H Z f.*Xn.z.3X%.u V b v j j j f f w d 1 1 1 < < = = & & o ",
"; ; ; ; 1 6 1 6 6 1 < 1 1 w f e F w v b 4 #.0 ,.xXk.d.3X5.i V 7 b f f 2 w w 2 w 1 < 1 = , & & O X X ",
": : : < 6 1 1 , 1 1 ; 1 1 w w e f w b 2 = g l ,.1X0.9.>X6.s = z 6 w w f f 1 w 6 , 1 < , = & & X X . ",
"< & & & < ; < & 1 < ; ; < 1 w w 1 1 w 6 6 d k / :X] ] !.<.; = z f 2 1 w 1 2 7 f , , < , & & X X X X ",
"& : : & : < < : < ; ; < ; 1 1 1 w 1 4 6 d 1 h / [ p p [ r z 6 = w 2 1 1 2 1 2 2 , , , , > O X X X X "
};
