/* XPM */
static char *_b583368286d411594148f445347dd7ctkUQZGrH7Ibp6rK1[] = {
/* columns rows colors chars-per-pixel */
"50 50 256 2 ",
"   c #00010D",
".  c #000B0A",
"X  c #070409",
"o  c #000414",
"O  c #000A14",
"+  c #01041B",
"@  c #0C051D",
"#  c #010B1C",
"$  c #0D081F",
"%  c #0C0B13",
"&  c #13091E",
"*  c #14061F",
"=  c #00121B",
"-  c #001418",
";  c #090A0E",
":  c #010422",
">  c #0C0721",
",  c #020B24",
"<  c #0D0A23",
"1  c #00042B",
"2  c #010D2B",
"3  c #0D0D2B",
"4  c #110B24",
"5  c #120C2C",
"6  c #190C2C",
"7  c #150726",
"8  c #011224",
"9  c #02132C",
"0  c #0D122C",
"q  c #051828",
"w  c #13112D",
"e  c #1A132D",
"r  c #171529",
"t  c #020D34",
"y  c #080A35",
"u  c #140E32",
"i  c #1B0E33",
"p  c #170F3B",
"a  c #001433",
"s  c #0D1333",
"d  c #0D143C",
"f  c #0D1B3E",
"g  c #041C37",
"h  c #141334",
"j  c #1A1434",
"k  c #131A34",
"l  c #1A1935",
"z  c #161639",
"x  c #14153C",
"c  c #1A153C",
"v  c #15193C",
"b  c #19193B",
"n  c #1A1939",
"m  c #1A1A3D",
"M  c #1D1C3E",
"N  c #1B1A3C",
"B  c #22142E",
"V  c #221636",
"C  c #241834",
"Z  c #21153B",
"A  c #231C3D",
"S  c #2B1839",
"D  c #240C30",
"F  c #002C36",
"G  c #002B3B",
"H  c #072333",
"J  c #15243A",
"K  c #192439",
"L  c #00272C",
"P  c #21203E",
"I  c #24293F",
"U  c #180D41",
"Y  c #031B44",
"T  c #051644",
"R  c #131543",
"E  c #1B1444",
"W  c #171A41",
"Q  c #151B43",
"!  c #191A41",
"~  c #1C1D41",
"^  c #1B1C44",
"/  c #1B1449",
"(  c #161A4A",
")  c #1A1E49",
"_  c #1C1D4A",
"`  c #17144A",
"'  c #1D1952",
"]  c #0B1A53",
"[  c #211D42",
"{  c #231D4B",
"}  c #271845",
"|  c #201D55",
" . c #281C54",
".. c #301A49",
"X. c #002B42",
"o. c #042546",
"O. c #1D2247",
"+. c #1D224C",
"@. c #1A2748",
"#. c #00344A",
"$. c #163440",
"%. c #002B57",
"&. c #1D2352",
"*. c #1C2A53",
"=. c #18295C",
"-. c #013657",
";. c #18345D",
":. c #232145",
">. c #23234C",
",. c #2C244C",
"<. c #242B4D",
"1. c #2B2B4D",
"2. c #272944",
"3. c #33274B",
"4. c #232553",
"5. c #2B2454",
"6. c #252955",
"7. c #2A2B55",
"8. c #25255B",
"9. c #2C2659",
"0. c #242A5B",
"q. c #2A2C5B",
"w. c #322755",
"e. c #2A325D",
"r. c #273258",
"t. c #313459",
"y. c #2D3A4B",
"u. c #063A64",
"i. c #063D73",
"p. c #262C62",
"a. c #2C2D63",
"s. c #2E2E6A",
"d. c #273362",
"f. c #2B3164",
"g. c #2D3269",
"h. c #26366B",
"j. c #323365",
"k. c #32346A",
"l. c #353967",
"z. c #2C3974",
"x. c #373369",
"c. c #125A46",
"v. c #03465A",
"b. c #084752",
"n. c #334752",
"m. c #1F674F",
"M. c #2D6456",
"N. c #004A65",
"B. c #1F5765",
"V. c #005678",
"C. c #00536E",
"Z. c #27436E",
"A. c #2D5861",
"S. c #0C6675",
"D. c #2A6775",
"F. c #40666F",
"G. c #0B5C89",
"H. c #006689",
"J. c #0F7096",
"K. c #307982",
"L. c #1E7DAB",
"P. c #587E87",
"I. c #1F819E",
"U. c #288483",
"Y. c #2B8B99",
"T. c #0391AA",
"R. c #1F94B6",
"E. c #148DAA",
"W. c #2D98AD",
"Q. c #3AAABA",
"!. c #52AAB5",
"~. c #6FABB4",
"^. c #488DA1",
"/. c #1A96C4",
"(. c #219CC6",
"). c #1AA8C8",
"_. c #1BADD4",
"`. c #16B3DD",
"'. c #01B1DA",
"]. c #23B4DA",
"[. c #2BADD1",
"{. c #05B8E9",
"}. c #03BBF5",
"|. c #14B5EB",
" X c #2CBAEE",
".X c #51B6CF",
"XX c #10C7DB",
"oX c #06C5E8",
"OX c #17C8E9",
"+X c #02CDFE",
"@X c #06C7F6",
"#X c #13CAFB",
"$X c #17CBFA",
"%X c #01DCF6",
"&X c #02D3FE",
"*X c #0CD3FE",
"=X c #02DBFE",
"-X c #08D8F9",
";X c #1CD3FD",
":X c #11DAFE",
">X c #1ADAFE",
",X c #15D6F7",
"<X c #19D1ED",
"1X c #28C8E7",
"2X c #35C8E6",
"3X c #29CCF6",
"4X c #28D5FB",
"5X c #3BD6FE",
"6X c #30CDF2",
"7X c #17E9EB",
"8X c #00E4FD",
"9X c #0DE2FF",
"0X c #01ECFE",
"qX c #07EDF9",
"wX c #18E9FB",
"eX c #02F4FE",
"rX c #0DF3FF",
"tX c #05F6F8",
"yX c #14F6FE",
"uX c #0BE9EB",
"iX c #26E6EC",
"pX c #24E5F9",
"aX c #3EFBF8",
"sX c #39EDF7",
"dX c #29CCDB",
"fX c #57CCDC",
"gX c #4FC7D1",
"hX c #66C0C0",
"jX c #4DCEE6",
"kX c #56E2F9",
"lX c #4EFDFF",
"zX c #4CF3FC",
"xX c #5CFDFE",
"cX c #56F0FC",
"vX c #45ECEF",
"bX c #7EE2E7",
"nX c #65FAFC",
"mX c #74FEFD",
"MX c #7AFEFF",
"NX c #75F4FB",
"BX c #7EFFEB",
"VX c #83F2DF",
"CX c #98DEEA",
"ZX c #84FEFF",
"AX c #8BFFFE",
"SX c #8BF9F8",
"DX c #98FFFF",
"FX c #94ECEB",
"GX c #B8FCFF",
"HX c #B7F2F3",
"JX c #A6C9CF",
"KX c #C5FCFB",
"LX c #DBFFFE",
"PX c #DFFFF2",
"IX c #CDEFF1",
"UX c #F2FFFD",
/* pixels */
"4 4 @ 4 @ @ @ @ @ @ X @ @ @ @ @ @ @ @ @ > > > < < > > 7 3 < < 7 > 4 4 4 5 5 w h h h j n b M ! ^ ^ ^ ",
"4 & & 4 & @ @ @ @ @ @ @ @ @ @ @ @ @ > @ @ > > > > < < < 5 5 5 < > 4 w w 5 5 5 j h h z b b M ~ ~ v O.",
"& & 4 & & @ @ @ @ @ @ @ @ @ @ @ + @ @ > $ # $ < > < 5 7 4 w 5 5 < w w 5 w w h h j z z n n M ~ ~ O.O.",
"@ & @ & * @ * @ @ @ @ & @ % % @ @ > > > $ < < < > u 5 < 5 e e > 5 5 5 5 w w h w h h h z v n M ~ :.>.",
"@ @ @ $ @ @ @ @ @ @ @ @ @ @ @ $ @ @ < $ < $ < 4 < e w < < e e < 5 w 5 3 w u 5 h h v z h v n b ~ O.O.",
"@ & 4 & & & @ & @ @ @ @ @ @ @ $ + @ $ $ $ $ < < > 4 5 < 5 j j h 5 u u h h u k h j l z b b b M ~ ^ ^ ",
"@ 4 > < $ > @ @ $ @ @ $ @ @ @ $ @ # @ $ $ $ < < < 0 5 w e k k e h h u h h z j z z n n b M M b ~ ^ ^ ",
"@ @ @ $ @ @ @ @ $ @ @ $ @ @ @ $ @ $ > < < < 0 r w 3 0 0 h h w h z z z c b b z z h z z z b b b b ~ O.",
"4 > > > $ > > > > @ @ @ > 4 > @ < $ < < < w w e w 0 h h h k h b ! v b ^ E z z b v b b b n M n n ~ ~ ",
"> > @ 4 > > > @ > > > > < > > $ < < < < 4 0 0 h w h h k k x v v ^ ! E ^ ~ v R b z z v b n M A M b ^ ",
"@ > > 4 < < > @ > < > > > > < < < < < < 0 w 0 h h x k v v v ! ^ ^ ^ _ ^ ^ ! W ! z z z n M M n M b ! ",
"> > < < < > > > > < < < > $ $ < < < 5 5 0 w u s k x v W W W Q ^ _ ^ ) _ _ ^ W ! ^ b b n l k z n b ^ ",
"< < < < > $ > > > > < < > > < w 0 5 5 h h h h u x v W W W Q +.) ) _ _ _ _ ) ^ v ^ ~ b z n n h l b ~ ",
"w 4 < > $ > > > > < < < > < 4 w 0 w h h h h h d v W ) ) ) ) +.&.+.4.&.&.+.>._ W ~ ~ M z h n n n M ~ ",
"< < < < < < < < < < < < 5 w w e w h h h h z v x ! ^ ) +.+.&.&.*.4.8.4.&.4.4.>.W ~ ! ~ z n j l n z M ",
"@ > > 3 3 < < < w 3 < 7 5 e j e w w h x R W R W ^ ^ @.&.*.*.=.p.=.0.0.4.6.7.>.~ >.[ A z z h j h z M ",
"& 4 0 < 2 > , 3 5 5 5 7 V A 7 e r r f T ] =.' >.z :.@.*.h.;.Z.=.z.z.p.=.8.6.>.[ [ :.:.A n j b E z p ",
"& 4 $ < < , 3 3 u 5 u i V V 5 4 & & 0 o.Y g f k 0 K R T o.Y ;.Z.h.z.h.p.0.7.<.~ [ M l A A [ c u u u ",
"4 $ 4 0 0 3 3 h u 5 5 i 7 < j & X X   . . . . . o : 1 y 1 + 8 n.d.h.f.p.e.e.<.[ [ ~ c M [ E v u z c ",
"4 4 < < 3 0 0 u 7 u h j > 3 K + X n.n.M.m.c.m.c.b.-.%.N.u.Y   K t.g.d.6.0.7.q.<.[ >.,.:.~ x x v u u ",
"< 4 5 0 < u u j u u i h k J q + A.CXHXCXFXVXBXmXcX6X}.|.].L.t : r.t.e.4.&.7.q.5._ 4.6.<.[ ! ! ! h h ",
"4 5 5 5 3 u u h u 5 5 3 K J o = ~.KXGXSXAXMXnXlXwX-X+X}.}. XG.1 o.6.e.7.6.0.9.5. .| ' >.4.>.^ W R z ",
"5 3 w 3 5 u u j i h 5 , K = ; D.KXLXGXSXMXcXiX7XyXrX8X@X{.|./.%.2 m 7.7.7.q.q.8.8.8.4.5.6.4.O.v p z ",
"3 < u 5 u 5 u i i j A 0 k o = JXUXLXGXNXsXiX7XyXtX0X8X+X{.{. XJ., h 2.<.5.q.s.s.p.s.s.a.8.O.^ ^ R ~ ",
"u 5 5 5 u u i 6 u A < M 8 o P.IXUXPXSXvXiXtXqXtXtXeX0X9X{.{.oX).X.: ~ t.9.j.s.p.s.s.s.a.0.>.) Q b b ",
"5 5 y 5 5 p p p 5 z z v q o n.IXPXKXAXaXuXtXtXeXeX0XrX:X{.'.OXT.9 : 1.7.4.e.s.k.s.s.a.p.4.+.^ ^ x v ",
"5 5 y 3 u u u u u 7 z k k + q ~.KXGXAXzXuXyXeXeXeXeXrX=X}.|.[.V.1 h t.5.4.j.k.k.s.s.a.8.4.+.^ W p h ",
"6 5 7 5 3 3 u h z u n h J 9 + b.FXDXZXxXpXrXeXeXeXeX8X+X}. XJ.y t :.7.>.w.l.a.a.j.a.q.4.&._ E v u y ",
"6 6 5 3 3 3 y s ~ b ~ K K v , O D.SXZXnXaXeXeXeX0X0X9X@X|./.Y 1 _ t.5.4.j.j.0.0.a.q.8.4.>._ E z u h ",
"6 6 h 0 3 3 s k h ~ [ [ h k J + L hXAXmXaXuXtXeXrX=XwX@X/.G.: y 7.l.q.a.j.6.f.l.7.0.4.&.{ _ v p 3 u ",
"6 6 w w 0 s s x s :.~ A z x M 0 O A.bXMXlX7XyXqXeX8X:X`.J.a , 2.q.x.s.k.k.7.j.l.6.4.>._ { ^ E p u 3 ",
"4 4 w h 0 s s k O.>.^ >.1.n 5 P $ o !.MXxXiX7XeXeXrXoX).-., J 2.e.k.8.p.f.p.g.&.4.4.+.O.{ ^ p u u u ",
"y h h w 0 h k k @.&.+.+.O.O.j r e o F bXMXaXtXeXeX-X1XV.1 Q *.r.r.d.h.f.a.a.p.p.4.' ' _ ~ c i i 5 5 ",
"R R b k j l v v +.&.&.' ^ b l l e r O D.ZXzXwXyXrX<XE.o.: :.t.r.r.d.e.f.a.a.a.8.8.4.{ ^ ~ c i 5 7 5 ",
"/ / / c p E R p ' | | | / p V S S 3.o q gXnXiXwXpX_.-.1 s 1.t.>.7.0.0.9.9.w.5.5. .{ { [ Z i 6 7 7 3 ",
"U / / E [ ^ E ` ` ' | ' / p Z } } A w + C.nXvX6X1XH.t t 1.1.<.q.7.q.7.5.9.5.5.5.{ [ A c c i 6 7 < < ",
"R R Q O.O.O.@.+.R ] ' ) / E b b ( R >.a 8 Y.kXvXR.#.2 Y @.7. .l.g.p.0.0.q.0.7.5.^ ~ R x z x 3 3 < > ",
"d T f Q Q @.@.+.R Q ( ( ^ ! v Q @.+.^ v 2 H .XfXN.a o.o.O.q. .x.p.p.0.8.4.4.>.:.E b h h s s s y > > ",
"x p x W v d v O.Q ) ` E / ~ ^ ^ *.+.[ [ n + D.D.8 # $.y.1.3.,.w.9.7.<.,.:.A A l V e e r r 0 0 , @ @ ",
"p v W W f y x ^ _ { } E c / _ +.&.R ,.3.j , # # O k J <.3.,.,.t.w.9.5.,.,.2.A C C B e r 4 < 3 < @ * ",
"p / x d T d ( R { U U } / R R 4.4.| / _ ^ k > o 8 K ,.w.w. .6.&.w. .{ >.<.:.j A e e V D 7 < u > 4 @ ",
"i u y x x d W W u c Z c E _ &.' ` ` { 4.4.~ 6 @ K n V ...._ *.0.U  . .` x ^ >.:.A 6 7 j i i > : @ 4 ",
"4 e w k s 0 k h j e r 6 h x a : +._ ( R E } S S I J ! y U a.6.y w.} p >.) d v + j 6 D D D 7 6 7 @ # ",
"% r # + + # q q r 0 r K k 2 , : 8 a Y ( [ } S e H O a t 1 y f @.Z E x @.9 + a @ 1 h V D * * * @ r , ",
"q # + q g , # > # O + O + 8 -.D.- . = > : + o o - - b.N.a : + O o < o O 8 F B.F # O o o X % ; X . O ",
"8 9 -.Q..XW.S.N.X.X.X.G N.I..XfXY.U.S.N.%.o.G F S.W.jXQ.I.Y.D.#.G G H b.S.Q.fXW.J.-.g 9 # O . # I I ",
"T.)._.1X3XOX3X6X2X2X2X1X3X4X#X'.XXdX2X X X6X6X1XOXOX-X<X$X3X6X[.2X2X1X1X<XoXoXOX6X].(.R.R.R.Q.!.^.A.",
"H.].5X$X@X-XwX*XwX>X>X:X-X&X=X8X-X,X;X#X#X>X:X-X-X9X+X&X=X=X>X4X3X4X4X-X=X8X=X=X:X>X3X3X5XkXjXY.q O ",
": X.R.1X%X8X=X:X*X*X-X%X%X%X=X&X&X-X+X@X+X+X&X*X&X&X+X&X=X+X&X*X&X*X#X#X+X&X&X&X&X:X;X3X5X[.B.- # + ",
"> : #.T.oX8X=X+X*X*X&X%X%X%X%X&X&X+X@X@X+X+X+X&X&X+X&X&X&X+X+X&X&X&X#X#X+X&X+X+X@XoX|.4X`.-.- . O @ "
};
