/* XPM */
static char *_ffc82bc820b4aa1d4d3abf6c98ee75fjp7SGKeoFl9SVYmG[] = {
/* columns rows colors chars-per-pixel */
"50 50 256 2 ",
"   c #070408",
".  c #1D0002",
"X  c #15040A",
"o  c #0C041D",
"O  c #0B0B1C",
"+  c #060718",
"@  c #13041C",
"#  c #160717",
"$  c #091417",
"%  c #14121B",
"&  c #191708",
"*  c #240000",
"=  c #2B0202",
"-  c #280608",
";  c #350101",
":  c #3B0506",
">  c #280618",
",  c #27151C",
"<  c #360D15",
"1  c #0C0523",
"2  c #030B25",
"3  c #0D0A23",
"4  c #0C052A",
"5  c #020B2C",
"6  c #0D0B2C",
"7  c #030325",
"8  c #130524",
"9  c #130B24",
"0  c #14052A",
"q  c #1B022A",
"w  c #130B2C",
"e  c #1A0B2B",
"r  c #1B0724",
"t  c #0B1325",
"y  c #03142C",
"u  c #0C142D",
"i  c #051626",
"p  c #13122D",
"a  c #1C1B2D",
"s  c #181629",
"d  c #0A0A34",
"f  c #140E32",
"g  c #190936",
"h  c #0C1333",
"j  c #0C1C35",
"k  c #0E143C",
"l  c #021A3A",
"z  c #051837",
"x  c #141233",
"c  c #1A1335",
"v  c #141B33",
"b  c #13143B",
"n  c #1C153B",
"m  c #141B3C",
"M  c #1B1A3C",
"N  c #1B1A33",
"B  c #240826",
"V  c #261526",
"C  c #250A37",
"Z  c #211B3C",
"A  c #241438",
"S  c #370E28",
"D  c #052237",
"F  c #162238",
"G  c #0E222B",
"H  c #282332",
"J  c #2A221F",
"K  c #440101",
"L  c #4D0202",
"P  c #560301",
"I  c #520912",
"U  c #660200",
"Y  c #750502",
"T  c #731509",
"R  c #43183B",
"E  c #73182D",
"W  c #562625",
"Q  c #773038",
"!  c #6F2411",
"~  c #764335",
"^  c #0C1344",
"/  c #031B43",
"(  c #081847",
")  c #121445",
"_  c #1B1344",
"`  c #141B41",
"'  c #1B1B43",
"]  c #1B1C4A",
"[  c #15174C",
"{  c #1A1A51",
"}  c #170D49",
"|  c #260A44",
" . c #231343",
".. c #261946",
"X. c #271A55",
"o. c #320C47",
"O. c #052646",
"+. c #182548",
"@. c #03364B",
"#. c #042959",
"$. c #1B2557",
"%. c #013A5C",
"&. c #003558",
"*. c #183255",
"=. c #15324A",
"-. c #262649",
";. c #282755",
":. c #2D2F4F",
">. c #013B68",
",. c #133467",
"<. c #2D2D63",
"1. c #5A294E",
"2. c #00465D",
"3. c #054F58",
"4. c #35445C",
"5. c #014967",
"6. c #005A78",
"7. c #0D4C72",
"8. c #28456C",
"9. c #0A687A",
"0. c #860100",
"q. c #991900",
"w. c #8E0F0A",
"e. c #B81600",
"r. c #AD1108",
"t. c #902B12",
"y. c #A92804",
"u. c #BA2601",
"i. c #B0320E",
"p. c #933930",
"a. c #AE352E",
"s. c #931020",
"d. c #C71805",
"f. c #D31A08",
"g. c #D30E0F",
"h. c #EA1700",
"j. c #F61A03",
"k. c #EF1512",
"l. c #C92602",
"z. c #D92701",
"x. c #C93605",
"c. c #DA3A04",
"v. c #D43015",
"b. c #E82702",
"n. c #FE2B01",
"m. c #F82906",
"M. c #E93604",
"N. c #FE3401",
"B. c #FC3C01",
"V. c #FE3C0C",
"C. c #F63805",
"Z. c #E72716",
"A. c #F62813",
"S. c #FD3714",
"D. c #ED3C14",
"F. c #D0312A",
"G. c #DD2426",
"H. c #B44D06",
"J. c #B74A2D",
"K. c #A14E1A",
"L. c #DA4501",
"P. c #D64E12",
"I. c #EA4705",
"U. c #FD4302",
"Y. c #FE4B03",
"T. c #FE430A",
"R. c #FE4B0B",
"E. c #F44706",
"W. c #FC5201",
"Q. c #FA540A",
"!. c #E84719",
"~. c #FA4816",
"^. c #FE5614",
"/. c #E95713",
"(. c #D04A30",
"). c #EB512B",
"_. c #E06D1B",
"`. c #A02C45",
"'. c #E75642",
"]. c #B14D4B",
"[. c #FF9436",
"{. c #E9A020",
"}. c #ECC71F",
"|. c #F9A748",
" X c #FFD051",
".X c #FFE84B",
"XX c #FFEB6C",
"oX c #02558B",
"OX c #0A508D",
"+X c #036886",
"@X c #017688",
"#X c #006A97",
"$X c #147694",
"%X c #077CA4",
"&X c #0063A2",
"*X c #2F6B95",
"=X c #486C9C",
"-X c #10879C",
";X c #0088B8",
":X c #128FAD",
">X c #2E91B0",
",X c #10A4B8",
"<X c #2CA5B6",
"1X c #4D98B4",
"2X c #6992AB",
"3X c #0C9BCB",
"4X c #05A7D4",
"5X c #05B6D8",
"6X c #18B8D7",
"7X c #0DAECB",
"8X c #27A7C5",
"9X c #26B9D9",
"0X c #37B7D9",
"qX c #2EAFD0",
"wX c #05B9E6",
"eX c #17B9E7",
"rX c #10B7F2",
"tX c #2EB5EC",
"yX c #3295C1",
"uX c #4DB3D4",
"iX c #67B6D6",
"pX c #45B8E7",
"aX c #68A5D6",
"sX c #07C6DE",
"dX c #16C3D7",
"fX c #29C3DA",
"gX c #04C8EB",
"hX c #17C7E9",
"jX c #06C8F8",
"kX c #14C6F8",
"lX c #04D4F9",
"zX c #16D4F2",
"xX c #2ACAE8",
"cX c #36C8E8",
"vX c #26C6F6",
"bX c #38CBF8",
"nX c #24D8F9",
"mX c #36D1EE",
"MX c #37F2FF",
"NX c #4AC3D8",
"BX c #74D0D7",
"VX c #4ECFEF",
"CX c #6FD6F2",
"ZX c #54E6FB",
"AX c #77E8FD",
"SX c #69F8FF",
"DX c #7AF8FF",
"FX c #64E8F7",
"GX c #8CD7F6",
"HX c #86E6FA",
"JX c #88F8FF",
"KX c #96FAFF",
"LX c #94E7FF",
"PX c #A4F9FE",
"IX c #AAE7FF",
"UX c #80C9D8",
/* pixels */
"O 3 q q O + X O 5 ^ 7 7 # X + +     + 7 d + O # @ e b + i + 9 # O o q C g 4 i D h g A A a G a F M +.",
"$ 3 0 e 3 O X # 5 7 d 8     + @ J   8 1 4 + + @ 8 8 7 y G t r @ O 9 B g w h D D b _ A A a F F F M ' ",
"t O 9 8 O O O X 8 + 8 %     + S ~ ; > @ 0 w   # 1 f 7 6 p 8 B A s @ 8 f p t i y k _ } | A  .] ] +.] ",
"+ O 3 3 @ o # # # # X   $   X I ].U ; 8 0 6 o 9 1 v h 6 o A f h 2 y z / j h u N b ) _ _ n _ ] ] -.-.",
"+ O + O 8 8 @ # X W *   %   X I ].w.* % 6 7 r 9 5 5 u 4 0 -.5 l @.9.@X%.5 5 B q b ^ j j b M ] ] -.+.",
"O O O 2 r r q # . ~ W * #   * E (.y.= # 3 7 e 8 u + u p f m O.+X,XcXbX>X5.z e A b m z F N A ]  .] ' ",
"2 O $ O q q 0 @ . ~ p.L * X * t.v.x.K # 3 6 8 r u y y j y y 9.0XbX6XeXcX>X#.+ F v j G v a Z M ' _ ' ",
"2 2 + o 8 q 4 @ = ! (.Y * , - t.!.Z.P . 8 n 8 e 2 v t u j D >XVXZX3X6XZXVX9.D t b x v N a V n ' ] +.",
"y + 6 o 9 8 4   = J.l.q.* X ; i.~.D.Y = 9 5 s w o N c s 1 4.aXiXPX%XVXJXHXBXD v n g Z M N ..] ] ' ' ",
"5 4 9 @ o 9 2 X P F.Z.d.= . P J.~.!.t.= B + O s N s 8 -.d 2XIX>XLX-XCXAXHX1XD j b ..4  .-.m [ [ ' M ",
"7 w @ #     $ . t.Z.A.f.: * T v.~.).p.= , X   s r @ ..j 7 2XUXOXuX-X%X+X6.5.@.F / d *.u F v j +.) M ",
"7 f @ # & X X ; F.A.A.v.K ; q.c.I./.J.K ; < - > V Z D z &.$X%X#.>X6.>.:XuXCXLXGX7.O.O.D t a v F n ' ",
"d w 9 - W ; = U F.m.S.z.P L l.E.Y.^.(.U : Q W = , +.y +X8XdXnX7X7.oX9XbXfXSXDXVX0X$Xy =.a , a p M M ",
"w 4 9 . p.P ; ! Z.A.R.b.0.q.D.Y.W.R.v.Y L J.p.* V D $XVXdXsXsXzX+X%.tXxX6XSXZXmXxX0X6.y Z B a a M M ",
"1 9 O . J.q.: t.!.S.B.E.f.Z.R.Y.Y.Y.x.0.Y ].p.; V =.GXJXmXhXsXxX5.3.qX9XNXAXDXbXgX6XVX%.d A N +.M M ",
"+ 9 % * (.F.P y.D.V.Y.R.m.S.B.Y.Y.Q.I.r.e.(.J.K s 7.CXSXSX6XbX@X-X$X$XAXJXAXDXVXkX5XFXaX5 A b k m M ",
"X X 8 < '.f.0.u.M.R.Q.U.B.T.C.^.R.^.C.z.E.!.F.P u $XmXZXSXFX-X3.PX1X%.IXHXDXSXxXrXhXFXPX4.i +.( b c ",
"$ # @ K '.M.r.x.~.U.Q.Y.U.U.N.T.R.T.E.C.U.R.(.E 7 1X<XmXFXNX%.BXHXGX%.>XKXCXcX6XvXbXDXPX2X$ y k b p ",
"+ $ 2 ; ).A.f.D.M.^.Y.Q.U.m.V.V.~.V.B.E.I.L.).T # l 5.5.9.>XHXPXKXDX,X3.3.<XVXcXpXCXCXBXBX@.h Z n c ",
"2 i t = !.V.b.M.T.T.^.E.Y.B.h.n.S.V.U.E.I.W._.T I l 6.yXVXKXCX<X<XFXfX,X@X@.9.6.#.&.&.3.3.3.+.e f f ",
"2 y i - P.U.n.b.~.L.u.H.c.b.m.h.m.b.b.U.Y.W.^.q.I O.#XcXNXNX@XBX>X9.xXzXsX7X3.1X*X:XdX,Xi y 6 C f b ",
"4 6 $ - P.Y.B.b.x.H.{._.u.z.b.m.e.l.l.c.W.W.T.t.< l qXxX6X@XAXAXKX@X,XlXlX7XuXIXIX:XhXxX&.+.Z M n n ",
"r w i - P.T.^.L.i.{.}..X_.e.Z.e.H.{.P.x.W.W.I.i.- >.4XlXdX%XKX9.iXNX7XgXnX,XNX1XIX>X6XxX%.h +.z h b ",
"B r 2 = i.R.^.L.H.XX}.}.[.l.f.u.|.XX[.H.I.Q.~.i.> &.rXjX5X,XKXBXKXVX7XjXkX;XuX>XCXqX7XcX&.F =./ ` M ",
"q e e * y.~.~.x.H.XX}.{.[.e.Z.u.{. X|.u.I.R.!.t.> >.rXjXwX;X-X<XyX;X3XjXvX4X-X,X>X8X6XfX%.+.( ( ` ' ",
"g 0 w = q.~.Y.L.H.H..X{.u.b.A.d.K._.L.l.M.R.!.t.V #.eXjXjX5X,X6X3X3XgXnXwXkXnXdXbXbXzXfX@.) ,.[ b b ",
"^ 4 w - T !.B.C.x.y.y.e.b.A.h.b.u.x.d.n.N.U.!.t., O.3XkXlXlXzXhXvXhXlXjXjXlXgXlXjXkXgX7X@.b X.X.b b ",
"^ 5 u * U !.U.B.M.I.l.M.S.h.n.S.M.b.j.S.n.B./.T > O.%XvXgXgXlXjXkXwXjXlXgXlXlXlXjXjXsX8XO.' }  .g d ",
"d h t X L (.E.B.B.m.S.A.j.n.n.h.C.C.m.S.n.C.(.P V O.7.tXzXgXjXrXlXgXgXgXlXjXwX4XkXkXxX%Xl n ^ ` f f ",
"f p t $ - p.I.B.N.A.S.A.n.n.n.B.N.m.n.n.N.~.H.: H [ ( yXhXgXjXjX5XkXkXrXnX4X;XwXjXrX0X%.O.` ] b d f ",
"B B u t # W P.U.S.n.b.A.V.m.n.m.N.N.N.B.R.).t.= R ;.( 6.fXgXlXjXnX6XbXpX%X&X3XjXkXbX>XO.*.m Z 1 w w ",
"> B p p 9 < (.!.C.~.z.e.c.!.D.R.N.N.B.~.I.(.P V -.$.;.l ,XhXjXjXMX3XOXOX&X4XkXkXrXtX>./ +.b w c w f ",
"q C e e a - T '.D.R.W.l.0.w.y.r.b.U.B.~.).s.< ..;.+.*.O.D 0XkXjXlXwXwXtXVXFXeXhXVXoXO.+.] Z b 5 6 w ",
"g ] g x a % I a.).I.W.^.P.q.q.y.I.E.I.).p.K B :.) *.4.D 3.6.tXjXjXlXkXvXDXDXZXtX$X#./ .. .C n u 6 w ",
"/ [ ) ^ D v S P J.P.W.E.U.~.R.I.c.).'.J.: J 4.+.;.-.+.D <X+X6.tXnXhXhXxXSXDXVX$X#.( ' -.C B c 8 3 3 ",
"D / [ [ [ +.g > < K./.^.~./.Q.Q.)._.t.= J :.=.:.;...;.@.<XVX>.#.%X3XfXcXFXuX5./ O._ F Z e V e o 8 3 ",
"z j ..X.$.{ $.+.$ - T i.'.(.J.H.t.P . J +.D =.-...:.^ 8.uX$X$.$./ #.>.%.O.5.9.&.=.m j m v v p t 3 1 ",
"j u  .o...[ { =.G & : P P U U U P P J =.$.[ $.-.A :.X.OXOX( <.;.*XiX:X,X9XNX>X&.( b m m v u u x 1 1 ",
"y h A | o.| | Z H & T F.G.k.f.e.F.E V ;.X.{ ;.m :.:.[ ( ,.,.$.O.>XtXeXgX5XeX>X7.) ..| C C g 4 w 1 O ",
"z O._ | o.o.C A J I E g.g.k.A.Z.r.`.R g <.X. .;.-.Z <.;.$.*.*.5.>X%XgXgXgX4X#X=X(  .| g C C 0 4 4 1 ",
"( ( [ } | |  .A % J `.Y g.k.j.Z.w.s.1.R o.X.;. .+.` ;.;.<.*.b =X*X&XjXwXrXwX>.1X8.d f _ g g q w 1 o ",
"l / ( ^ } } _ m Z J Q Y f.A.j.k.w.E 1.R | } X.] ;.] -.` +.+.' =XOXOXrXrXjXrX>.7.8.z h n 6 d o o 1 o ",
"4 u h z ^ } ^ [ ) ..S I G.k.k.G.E < S H Z F ..] { +.+.F +.' | <.,.OXrXwXjXeX#.[ Z 9 s v u t O + o 3 ",
"% % y 5 ^ ( k ) ^ _ g I G.k.g.F.Q < , a F F ] ] ;.] +.F -.-.g _ _ OXtX4X4XqX,.g r X s u i t $ # O o ",
"# % % t y z u p b b g < s.Z.0.F.E S B i a M +.) ;...m v M -.` m x 8.0X%X&XtX<.g % % s 2 + 9 # X @ o ",
"r e e 9 h u 9 9 g f n < F.g.Y a.E S N i v c ] _ _ ] ' n N M +.+.x *.uX#X&XpX$.q % $ s 1 7 6 # # o o ",
"d d 6 6 h u % # B C f > a.g.U p.E C a v A C o.Z ^ ` ..A A x M N p %.uXoXOXpX$.q $ $ w 4 g d o 1 o o ",
"^ d d d f x # > q A 0 > `.s.L 1.1.r p A A C .. .` m | S A f A c t *.1X5.>.1X;.w t $ 4 4 g g + 4 o + ",
"7 4 1 1 4 3 9 @ e w w r > > B B e e 6 x e g n w f x c g N f f e p p z l l k x e O 9 9 0 4 1 1 o o o ",
"1 7 1 1 1 4 9 1 9 6 4 4 0 0 w w w w w c f w c f f f c c c c f w e p e w w p e 9 3 9 9 9 @ o o o o o "
};
