/* XPM */
static char *b3b4d1b28c2945b0ae9d786fe020435fuWOtMXUMaNTiD5Cc[] = {
/* columns rows colors chars-per-pixel */
"50 50 256 2 ",
"   c #1C0002",
".  c #1C040A",
"X  c #080719",
"o  c #160519",
"O  c #0D0F15",
"+  c #230002",
"@  c #2C0002",
"#  c #2C0309",
"$  c #340102",
"%  c #390304",
"&  c #280817",
"*  c #350E18",
"=  c #1C251D",
"-  c #020B25",
";  c #070827",
":  c #140324",
">  c #180729",
",  c #071628",
"<  c #16162A",
"1  c #070B34",
"2  c #180935",
"3  c #021534",
"4  c #0C1433",
"5  c #0D1B35",
"6  c #011C3B",
"7  c #0C1C3B",
"8  c #05163A",
"9  c #1B1533",
"0  c #1B1A33",
"q  c #121B3C",
"w  c #171639",
"e  c #240629",
"r  c #271725",
"t  c #250737",
"y  c #25153A",
"u  c #340A2D",
"i  c #042436",
"p  c #17233B",
"a  c #0A2B34",
"s  c #292537",
"d  c #3F231F",
"f  c #430100",
"g  c #460504",
"h  c #580302",
"j  c #510D0D",
"k  c #6A0401",
"l  c #770100",
"z  c #7A1401",
"x  c #6B120A",
"c  c #4B112F",
"v  c #6D172A",
"b  c #692825",
"n  c #724125",
"m  c #170D46",
"M  c #071845",
"N  c #141C43",
"B  c #191746",
"V  c #1B1B54",
"C  c #0F144D",
"Z  c #270947",
"A  c #360449",
"S  c #241847",
"D  c #390656",
"F  c #271957",
"G  c #39145B",
"H  c #260D52",
"J  c #062645",
"K  c #182548",
"L  c #063648",
"P  c #042A56",
"I  c #182856",
"U  c #043757",
"Y  c #173750",
"T  c #24234A",
"R  c #262755",
"E  c #2A3353",
"W  c #351067",
"Q  c #013A68",
"!  c #113466",
"~  c #303267",
"^  c #470248",
"/  c #440054",
"(  c #411555",
")  c #441062",
"_  c #612C4F",
"`  c #01434B",
"'  c #044559",
"]  c #0F4959",
"[  c #054667",
"{  c #174465",
"}  c #025878",
"|  c #0F4D74",
" . c #18797A",
".. c #087077",
"X. c #274F6A",
"o. c #5B565A",
"O. c #961700",
"+. c #8A0909",
"@. c #A50804",
"#. c #B21603",
"$. c #902B0F",
"%. c #A72701",
"&. c #B02E0D",
"*. c #94342F",
"=. c #A6352D",
"-. c #9A1929",
";. c #C61902",
":. c #D51A05",
">. c #CE120C",
",. c #E81900",
"<. c #F51905",
"1. c #EE120E",
"2. c #C62703",
"3. c #DA2501",
"4. c #C63705",
"5. c #D73803",
"6. c #D32F15",
"7. c #E82604",
"8. c #FF2C00",
"9. c #F62703",
"0. c #E83903",
"q. c #FD3301",
"w. c #FE3C02",
"e. c #F83907",
"r. c #F62912",
"t. c #F83716",
"y. c #E62F12",
"u. c #D52C2B",
"i. c #E92320",
"p. c #B1480A",
"a. c #B6462B",
"s. c #A15323",
"d. c #D24A0B",
"f. c #E84603",
"g. c #FD4301",
"h. c #FD4B01",
"j. c #FE430B",
"k. c #FE4B0B",
"l. c #F44705",
"z. c #FD5202",
"x. c #FF550A",
"c. c #E84918",
"v. c #FB4915",
"b. c #FD5517",
"n. c #E85416",
"m. c #D74826",
"M. c #D04E31",
"N. c #EA522B",
"B. c #DF6C20",
"V. c #8D585F",
"C. c #D14B41",
"Z. c #9C2A41",
"A. c #2C8F7A",
"S. c #FF933A",
"D. c #EAA11E",
"F. c #EAC61E",
"G. c #FF9C46",
"H. c #F4AC46",
"J. c #FFD54F",
"K. c #FFEA5B",
"L. c #055886",
"P. c #055091",
"I. c #036689",
"U. c #087989",
"Y. c #177A8A",
"T. c #006798",
"R. c #197A96",
"E. c #11718D",
"W. c #257590",
"Q. c #0E7AA3",
"!. c #3A77AA",
"~. c #325581",
"^. c #50699D",
"/. c #6B7FC4",
"(. c #A769B9",
"). c #AF69BC",
"_. c #A85DB1",
"`. c #CD5AB7",
"'. c #B75CC8",
"]. c #AA6EC6",
"[. c #B567CB",
"{. c #A873C8",
"}. c #B471D4",
"|. c #9F68E1",
" X c #A37BD8",
".X c #C364CE",
"XX c #C35FC1",
"oX c #0D858B",
"OX c #14838C",
"+X c #1B838B",
"@X c #068A99",
"#X c #178594",
"$X c #059596",
"%X c #0086B5",
"&X c #1290B0",
"*X c #2E92B2",
"=X c #28A6B4",
"-X c #1D95A5",
";X c #4E99B2",
":X c #6791AB",
">X c #0498C7",
",X c #0C95C8",
"<X c #02A9CA",
"1X c #03A9D8",
"2X c #08B8D8",
"3X c #11B2CE",
"4X c #25A9C6",
"5X c #27BADA",
"6X c #33B3D2",
"7X c #05BAE6",
"8X c #13B8E6",
"9X c #03BDF6",
"0X c #13B3EB",
"qX c #27B7E6",
"wX c #2FB5EF",
"eX c #2E9EC3",
"rX c #4EB4CF",
"tX c #68B6D7",
"yX c #47B6E9",
"uX c #6B94D0",
"iX c #10C5DA",
"pX c #37C6DD",
"aX c #05C7E9",
"sX c #17C7E9",
"dX c #08C8F8",
"fX c #15C8F7",
"gX c #04D3F8",
"hX c #15D6F5",
"jX c #26C8E8",
"kX c #35C8E9",
"lX c #29C9F6",
"zX c #36C8F7",
"xX c #36D3FA",
"cX c #35EEFF",
"vX c #4DC2D9",
"bX c #75CED5",
"nX c #48CAE8",
"mX c #52D3F1",
"MX c #70D4F3",
"NX c #54EFFC",
"BX c #76EAFD",
"VX c #65FBFE",
"CX c #6BFBFE",
"ZX c #69F6FD",
"AX c #74FCFF",
"SX c #78F7FC",
"DX c #6EEDF2",
"FX c #A191D5",
"GX c #CF8AC6",
"HX c #8CD2F9",
"JX c #88EAFB",
"KX c #87F9FE",
"LX c #98FAFF",
"PX c #9AE6FF",
"IX c #A5FBFD",
"UX c #A7EAFF",
/* pixels */
"PXJXKXZXCXVXSXDXCXVXCXZXKXKXVXDXDXDXKXLXLXSXKXSXKXLXSXAXCXSXIXJXAXCXSXKXSXVXNXVXVXBXSXAXCXCXCXAXMXHX",
"uX!.R.E.OX.. . .oXU.#XY. . . . .A. . . .#X . . .W...U.#X#X+X+X .oX+XW.R.Y.@X$X$X@X&XR.R.OXoXoX#X^.uX",
"FX~ ! U L L ` a a i L ` J i ] s o.= a L U U a ` L U U ' L ] Y X.` a L U ' ` ` ` [ [ ! { { ] | | ~  X",
"(.m 1 1 , X , O O X X O - X o * V.% & , 1 3 - , , 6 J 3 - 7 3 i , 3 6 i 3 i , a 7 M M N q B C V W  X",
").A - - - : 1 X . d . O O O o j M.z + O ; ; X ; - , 1 4 > S 1 6 L I.E.U 1 2 t > w N q w w S S F W {.",
"_.t , - : > : o . n n . X < + x M.%.$ o ; ; : o , - X < > 4 J L.4XkXzX*XQ 8 e y w 4 7 5 9 t B H W {.",
").u ; X > e ; o . n *.%   & + x d.4.g . : ; e e ; , , < , - } pXlXsXsXlX*XP , q N 7 4 5 < 0 N H G {.",
"'.A o X e > ; o % z a.l # o # $.c.y.h + o > o > X < > , 0 a #XmXmX1X2XmXnXE.i , 7 7 7 5 0 0 N S G {.",
"[.A e o e o 2 o % a.#.@.$ & $ $.c.6.x @ X - < < : 0 < > X X.tXrXLXQ.nXSXKXbXa , < < 0 p < p B V W ].",
"'.^ e : X : ; . k 6.y.&.$   f m.b.c.$.+ o X - < 0 < ; S , :XUX!.PXR.MXBXJX;X, , w S ; y s w q S ) [.",
"'.D > : X O X   &.6.r.6.%   x d.v.n.*.@ & O O O < X N 4 ; :XHXQ rXQ.Q.L.} { L 5 8 1 K ; p 0 w F ) {.",
"'.D > o . . X $ u.7.t.2.f @ $.6.f.n.a.f + d & o < 0 J 3 P R.Q.P -XL.Q ,XrXMXPXHX~.M I q ; 0 w S G {.",
"}.D t o b % . x u.9.v.3.h h 2.l.x.n.M.k g b b # e S - E.4XiXhX3X} P.qXxXqXCXKXmX6XQ.1 I 9 < y 2 G {.",
"[.^ e . *.k $ z y.8.k.3.+.@.e.h.z.l.6.l h Z.*.$ r 8 W.mXiXsXiXhXI.[ wXwXqXNXNXkXlXqXL.1 y < 9 w G ].",
"'.^ :   a.O.g $.r.q.h.f.>.i.k.h.z.h.5.+.l a.*.$ r L JXKXkXfXaXjX' ' 6X5XkXBXSXxXsX2XmXU 1 t 9 B D ).",
"_.^ : @ C.6.h &.0.w.h.k.9.r.w.h.h.z.f.@.%.C.a.f X X.MXAXAX4XzXI.#XY.U.BXJXBXSXxXfX1XZXrX- 9 4 q G {.",
"GXu t % C.3.l &.0.h.z.e.j.t.e.b.k.b.0.7.e.c.M.h 4 W.pXNXVXDX#X[ IX;XU UXJXSXSXjXdXsXDXLXY O K N A (.",
"GXc t % C.6.@.4.l.h.x.h.w.k.w.q.k.j.0.e.h.l.C.x ; ;X4XpXDXvX[ tXJXHXU R.LXDXkX8XqXzXBXIX:X, , N G FX",
"(.A > $ N.t.2.t.q.x.h.x.w.9.w.e.v.e.h.h.l.f.N.z & 8 [ [ ..*XJXLXLXSX4X` } =XnXkXwXMXBXbXbX` 5 Z G GX",
"(.D > $ N.q.9.9.e.g.x.l.b.w.,.8.t.q.j.l.f.f.B.z u 8 } *XvXLXMX*X=XDXiX<X..L } } P U U ` ] ] K t Z (.",
"].G 2 $ m.w.8.9.k.0.&.4.0.7.9.<.9.,.0.w.h.z.b.O.j J I.kXnXrXU.mX-X..jXsXiX<X] ;X!.R.iX&Xi , ; t D ].",
"[.A > $ d.h.w.e.5.p.D.B.#.:.9.9.;.2.2.0.z.z.j.$.# 6 4XlX5XU.DXJXLXU.<XsXgX2XrXIXHX-XiXjXU K 0 Z D ].",
".X/ 2 $ 4.k.j.0.%.F.F.K.B.#.7.;.p.D.d.4.z.l.f.&.& U 1XfXsX@XLX| tXvX1XaXhX&XvX;XUX*X2XjX' 4 J w D ].",
"XX^ t @ &.b.b.d.d.J.F.F.G.2.:.#.H.K.S.&.f.z.v.&.e P 8XgX2X&XLXbXLXnX<XhXfX%XrX*XMXrX<XkXU 7 I N G }.",
".X^ t $ %.v.b.4.p.K.F.F.G.#.6.;.D.J.G.2.f.l.c.$.& Q 0XdXaX%X@X=X4X%X>XfXlX1X$X&X=X,X2XjX' J C V G {.",
"[.A t # O.c.k.5.p.B.F.D.#.2.t.2.p.B.d.2.0.v.c.$.e P 0XdXdX2X3X4X,X>X8XdXdXhXhXsXzXmXsXpXP C I V ) {.",
"}.D 2 # z c.l.0.5.%.%.O.3.t.,.7.#.2.:.9.8.j.c.$.* J ,XdXgXgXsXsXzX8XdXgX9XgXgXaXdXhX2X3XJ K F H G (.",
"}.) Z # h m.h.w.0.l.2.0.t.,.9.w.7.0.<.t.8.q.n.z & J Q.lXaXaXgXdXfX9XgXgXgXaXaXgXdXdXaX4XL w m Z G GX",
"}.D 2 . f a.l.q.q.9.e.t.<.r.8.,.e.e.9.e.8.e.m.h r M Q yXaX7XdXdXaXdXaXaXgXgX1X>XfXfXlXU.i B m S G FX",
".X/ e o # *.c.w.q.8.t.r.r.q.8.g.q.7.8.8.q.v.a.$ s P C *XjXdXfX9X7XaXdXfXfX1X>X7X9X0X5X[ 6 N N B A (.",
"XX^ e > : v n.h.w.8.,.t.t.7.q.<.q.q.q.w.e.N.$.@ ( T C } iXaXdXdXcXqXwXwX>XT.>XhX9XzX*XP K K 9 2 D (.",
"`.^ 2 < 1 * a.l.e.j.7.@.5.b.e.j.w.q.q.v.f.m.j * T T I 8 =XsXdXdXcX,XP.P.T.,XfXdXwXwXQ M I 4 2 e D (.",
"XX/ A 4 q o x N.f.k.v.;.+.+.%.#.7.h.g.l.N.-.* t R V I J i 6XsXdXgX7X1XwXmXMX8XsXmXL.M K S w w 1 D ).",
".X) t 4 N > j =.B.f.l.b.f.%.O.%.k.0.0.N.=.g & ~ m R E i ' } jXfX9XhX9XzXSXSXmXkXR.P J T y t w 2 Z (.",
".X/ B 4 B w & g M.n.b.g.l.v.b.f.0.c.N.a.g r E T R F E i -X..} qXxXiX8XkXSXKXmXE.J 7 N y e e 2 > A (.",
"}./ S w S S t & f $.N.N.v.v.c.n.B.B.$.$ = E Y E R S R L =XmXQ P Q.<XpXkXZX6X' i M N 0 p < < > > A (.",
".X/ S S F F I P = # x &.M.M.a.p.$.j . = 5 J Y K S R C | rXR.J I M P U U J [ } U K q 5 i 5 < 5 > A (.",
"|.D S S H V I U , . $ h k l k k h g = a I V J R y R V | L.M ~ R ~.tX&X,X6XpX*XJ i 5 5 7 5 4 , w A (.",
"|.W m w H Z C K s * z u.5.:.>.>.u.v r K F F R N E E C M P { K J *XqXsXaX2X5X*XQ M S Z 2 2 2 ; 2 A _.",
"|.W m m Z Z m B = * +.;.>.,.i.i.@.=.( 1 ~ G m T T w ~ R I I Y { eXT.aXaXaX1XT.;XM S t t t 2 2 2 A (.",
"|.D B 4 2 t w B i r *.+.2.7.,.u.+.-._ ^ S S R S K B F R ~ I B X.*XP.0X9X9X1XQ ;X~ 1 2 2 2 2 > 2 t ).",
"XXD 9 < 2 y m w w s _ l ;.7.1.i.+.v _ ^ S B F S R B T B K K T ^.~.P.0X9X9X0X! P.{ 8 w B 2 ; : : A (.",
"`.^ 9 , 2 w C C m Z u h >.1.i.u.-.r u r s 7 B V V B K q q B Z ~ C P.wX9X9X0X! m y o < < ; - X X A (.",
"`.^ < , 2 w 1 M m Z > j >.1.>.u.v r r = p p B V I B p a T T w m 2 P.qX>X1XwX! 2 e o < , - , O o A (.",
"`.^ 2 3 1 4 3 , S 2 < g >.<.@.6.v u r , a q C N R V q 5 p K N N m ! 6X%X%X6X! 2 < , < , - < o o t (.",
"`.^ m 3 1 , - , 2 2 < * &.:.l *.v u , , < 4 N N N N N 5 5 5 J K , Y yXT.P.yX! > O O , - X - X o e (.",
"'.W m M J i < < 4 B m e =.=.k n _ r p i S y S I M J B T K 5 K p a ` rXT.P.yX! > , , 4 1 1 4 X > A _.",
"|.W P P U ` a a Y ! P I V._ s o.X.K U ` ~ Y Y { [ U Y E Y Y Y Y ` ] 6XI.P.6X{ L ` ` Y P U P J L y ^.",
"uX^.W.Q.R.U...#XOXOXoXOXW. . .Y.Y.Y.#XOXY.Y.Y.#XY.#XY.OX#X#XY.R.+XoX@X@X@X@XoX#XU.oXY.oXY.oXU.U.E.L.",
"HXHXMXBXZXVXVXVXCXVXCXVXCXZXZXZXCXVXAXZXAXCXAXAXCXAXCXCXAXSXAXAXCXVXVXVXVXVXVXVXVXVXVXVXVXVXVXZXBXBX"
};
