/* XPM */
static char *d7f296d7475843a0d98980cafe2659a5aLvh0JGYu4jMgzpP[] = {
/* columns rows colors chars-per-pixel */
"50 50 255 2 ",
"   c #080208",
".  c #120302",
"X  c #1C0000",
"o  c #1B000B",
"O  c #14010B",
"+  c #040415",
"@  c #0C051D",
"#  c #0A0A1D",
"$  c #04071C",
"%  c #13031C",
"&  c #19021B",
"*  c #170416",
"=  c #08111D",
"-  c #191618",
";  c #240003",
":  c #2D0203",
">  c #22000C",
",  c #2B0D09",
"<  c #330001",
"1  c #3B0102",
"2  c #360809",
"3  c #230214",
"4  c #280B18",
"5  c #380717",
"6  c #2F131B",
"7  c #0C0622",
"8  c #0E0A25",
"9  c #0E0B2B",
"0  c #070729",
"q  c #110623",
"w  c #110A24",
"e  c #120D2C",
"r  c #1B0E2B",
"t  c #1C0723",
"y  c #0C1327",
"u  c #13122D",
"i  c #1C122D",
"p  c #1D1A2B",
"a  c #181227",
"s  c #0F0E32",
"d  c #0D0A34",
"f  c #130E32",
"g  c #180E31",
"h  c #1B0D3D",
"j  c #0D1235",
"k  c #0E133A",
"l  c #0C1A3A",
"z  c #131233",
"x  c #1B1334",
"c  c #151A36",
"v  c #1B1B35",
"b  c #15153B",
"n  c #1A153C",
"m  c #151A3C",
"M  c #1B1A3C",
"N  c #240C29",
"B  c #280924",
"V  c #320926",
"C  c #22132D",
"Z  c #26162A",
"A  c #240E32",
"S  c #231433",
"D  c #22163A",
"F  c #221A3C",
"G  c #2B1837",
"H  c #341739",
"J  c #37162C",
"K  c #172137",
"L  c #25223A",
"P  c #3A2239",
"I  c #430101",
"U  c #4C0100",
"Y  c #460908",
"T  c #540001",
"R  c #5B0300",
"E  c #570905",
"W  c #540815",
"Q  c #45141B",
"!  c #520D0E",
"~  c #630002",
"^  c #6B0200",
"/  c #680E03",
"(  c #770800",
")  c #681902",
"_  c #781708",
"`  c #6A0213",
"'  c #781711",
"]  c #6B0C17",
"[  c #7B2815",
"{  c #490826",
"}  c #451927",
"|  c #4D1533",
" . c #6E1828",
".. c #4A2C39",
"X. c #622828",
"o. c #763128",
"O. c #7A3737",
"+. c #722B28",
"@. c #0C1C43",
"#. c #0D1B49",
"$. c #0C1845",
"%. c #151643",
"&. c #1A1542",
"*. c #151B43",
"=. c #1B1B43",
"-. c #1C1D4B",
";. c #15164B",
":. c #1A1D53",
">. c #141C56",
",. c #0E1D56",
"<. c #221D44",
"1. c #221D4A",
"2. c #291944",
"3. c #321E47",
"4. c #261E55",
"5. c #0E2245",
"6. c #152144",
"7. c #1C2143",
"8. c #15224C",
"9. c #1E214B",
"0. c #1B2252",
"q. c #1C2A5E",
"w. c #172459",
"e. c #222145",
"r. c #23224B",
"t. c #29254B",
"y. c #392548",
"u. c #222353",
"i. c #2A2353",
"p. c #252859",
"a. c #332654",
"s. c #333559",
"d. c #1A2B61",
"f. c #252C62",
"g. c #2A2E64",
"h. c #292664",
"j. c #312A65",
"k. c #23336A",
"l. c #2B3369",
"z. c #2E3271",
"x. c #313273",
"c. c #462B46",
"v. c #473557",
"b. c #603556",
"n. c #830102",
"m. c #8C0000",
"M. c #9B0200",
"N. c #871401",
"B. c #991B05",
"V. c #871715",
"C. c #B10500",
"Z. c #A51600",
"A. c #B91702",
"S. c #A20D18",
"D. c #AD0F0D",
"F. c #982800",
"G. c #952D19",
"H. c #87280F",
"J. c #A82803",
"K. c #BA2600",
"L. c #AB3202",
"P. c #A8291E",
"I. c #B32C15",
"U. c #A63519",
"Y. c #BB3000",
"T. c #8E162B",
"R. c #A80F2D",
"E. c #8C2627",
"W. c #9B2E24",
"Q. c #963331",
"!. c #B72429",
"~. c #AC3625",
"^. c #AF3728",
"/. c #C51A00",
"(. c #D61B07",
"). c #E41B00",
"_. c #E61600",
"`. c #F81C00",
"'. c #E30E09",
"]. c #CC2400",
"[. c #C62805",
"{. c #DC2C02",
"}. c #D72403",
"|. c #C33602",
" X c #D93606",
".X c #C6281B",
"XX c #D5281B",
"oX c #DA3717",
"OX c #CC3C1A",
"+X c #EB2302",
"@X c #E82A06",
"#X c #F32301",
"$X c #FB2303",
"%X c #F42B01",
"&X c #FE2D01",
"*X c #FA2C0A",
"=X c #EC3404",
"-X c #EC3C0B",
";X c #E63707",
":X c #F53302",
">X c #FC3401",
",X c #F43C03",
"<X c #FD3B04",
"1X c #FE320C",
"2X c #FD3A0B",
"3X c #F4390B",
"4X c #E62A13",
"5X c #E83B15",
"6X c #F53C14",
"7X c #FF3D13",
"8X c #FA3A18",
"9X c #C92824",
"0X c #C93625",
"qX c #D52C22",
"wX c #E32434",
"eX c #AF4407",
"rX c #964B38",
"tX c #B3503B",
"yX c #B8472C",
"uX c #C84A08",
"iX c #DE4502",
"pX c #DB4617",
"aX c #CD5718",
"sX c #CD510A",
"dX c #EA4607",
"fX c #FD4304",
"gX c #FE4A0B",
"hX c #F8460A",
"jX c #F9530D",
"kX c #E64719",
"lX c #FE4213",
"zX c #FF4B12",
"xX c #F94819",
"cX c #EF531F",
"vX c #CE7300",
"bX c #C94829",
"nX c #D54928",
"mX c #CB5433",
"MX c #E64926",
"NX c #F64A25",
"BX c #ED552F",
"VX c #ED7B1A",
"CX c #9E4F42",
"ZX c #CE8B07",
"AX c #CFB005",
"SX c #E4B215",
"DX c #DD8129",
"FX c #F8B536",
"GX c #F09029",
"HX c #FFC639",
"JX c #FFD43A",
"KX c #FFED3A",
"LX c #F89F45",
"PX c #FFB741",
"IX c #FFCF4F",
/* pixels */
"w w % w # @ @ @ @ @ @ @ @ @ % % % % # $ 0 7   - # 7 d & I rX> t w # = y y y a y u j n n v p 7.*.;.K ",
"w w w w % w @ @ @ @ + % @ @ % + % @ # + 0 7   . * w d * U rX5 % t 7 = y 9 s u y c c &.&.v K 7.6.=.-.",
"% w w w # # % # @ @ @ @ + @ @ @ @ % % + 0 $ Q ; O i 0 o E tXX.; t q y y j z u u z x n &.v v 6.6.6.9.",
"# % # % % % @ @ @ @ @ @ % @ @ @ @ @ % % y O o.E X p e o / bXQ.< B g a w z z u u x x h n c M *.*.r.r.",
"@ 7 q # q @ @ 7 @ 7 @ @ 7 @ @ @ $ # & t # . ^.W.; - u X N.0X^.E B h r e b n z u p x h n z m *.6.9.e.",
"7 % q 7 w q 7 % @ 7 @ 7 @ @ @ # $ $ % t + X 0X0X1 . a ; B.oXOX^ 3 n t w b m z z S x M &.m M 6.*.*.6.",
"7 # 7 7 7 7 7 @ @ @ 7 @ @ 7 @ $ + # % t . I XXXXE . N : I.5X5XN.> n a # b ;.j j i S M &.M K *.*.=.=.",
"7 7 7 7 @ @ @ @ 7 @ @ 7 @ @ @ # + y 7 t ; / 4X4X[ X 4 1 9X8XlXJ.> x 4 % c *.j c i i n %.M M =.m 7.9.",
"w q 7 7 7 7 7 7 7 $ 7 7 7 7 9 # * + y & < ~.@X4XG.: 2 W qX8XzXK.: p 4 . M 5.l c C C M ;.=.M M M =.=.",
"7 7 7 8 7 7 7 7 7 @ 7 w 7 7 8 % O o # * E !.@X@XU.I I ' oX7XfX|.1 6 , , u K l c C i b =.=.=.F F M =.",
"$ 7 8 w y # 7 7 8 7 e e 7 8 w & ; }   X V.XX=X-XI.~ T P.oXlX2XpXE : I X.= K 6.c C i b #.;.<.F v M M ",
"7 8 8 8 8 0 7 7 8 7 e w 7 8 e & 2 O.X ; P.4X=XdX[.( n.OX-XgX<XpX/ < _ rXX K 6.c G Z *.#.&.&.D i M M ",
"e 8 8 8 8 7 7 7 7 7 y 9 @ 9 e o E CX2 : .X@X=XdX5XC.].kXfXfXgX XN.U J.tX2 Z =.F Z G 6.#.%.%.i p M M ",
"e w 8 8 7 7 # 8 8 8 8 8 7 w a 3 / tXY I XX%X,XhX6X(.8X:XfXfXjXkXZ.^ oXbXY Z F F G Z l 5.;.M v p F M ",
"8 8 8 8 7 8 8 8 8 8 8 8 9 i u > / mX) R oX%XfXhX*X+X<X%XfXfXjXkXK.A.6XMX] 6 3.D J G 5.#.#.m p p v M ",
"@ 7 8 8 8 8 8 0 8 8 8 9 y v v > _ bXB.n.;X:XgXfX7X1X<X>XfXfXdX;X{.6X<XMX' 5 y.D H F *.@.#.m y a c M ",
"# w 8 w 8 8 9 8 u 9 9 s c M z o _ nX]./.{.,XgXgXlX).gX<X&XxXlXfX<X<X:XkXG.1 y.<.F L e.e.*.l c m z x ",
"8 y 8 y 8 8 8 9 z u 9 9 z z f 3 V.MX=X@X,X;X,XzXlXxX%X`.NX@X1X:X<X<XfXcX~.I P e.6.M v D K =.l j z f ",
"8 8 9 w 9 y y u 9 z z s z z j 3 V.BX<X_.-XxXdXdXdX,X$X`.'.8XlX2X:X<XfXcX~.U P e.9.=.D D =.=.c j c n ",
"# y w e y 9 s u y s z z z c z 3 / MXzX+X@X X|.L.L. X_.$X#X@X}.{.=XfXgXcXyXU P 9.6.9.r.3.<.%.z x f f ",
"w 9 y e u e u z z 9 s u b n z o ) aXgX<X}.[.vXAXZXF.(.'.(.A.B.J. XdXfXkXbXU P t.6.0.i.4.4.2.M M z j ",
"8 w u w 9 e u z u f j 9 c M c 4 ) uXjXdX].uXJXKXKXZX/.4X].uXFXvX|.;XfXhXbXU P 0.w.w.4.4.4.4.<.x n c ",
"8 8 e w e u u z z z z z b b b 4 U sXjXjX[.aXJXAXAXSXZ.|.F.LXIXFXY.;XfXdXnXT P s.q.d.q.h.h.i.2.M f b ",
"8 9 e u u 9 u z z z M z b c b 6 Y eXjXjXK.uXIXSXSXZXZ.oXB.VXFXIXY.=X<X=XbXT P s.d.k.z.j.h.1.M M =.=.",
"u u e u u z u f z z z n n m n C < yXhX%X@X[.VXFXGXL.{.4X/.|.VXeX[.:X>X6XbXT c.g.k.k.l.l.h.0.6.m M M ",
"9 9 w y e z z z z z c c b c c S 5 Q.-X<X6X].A.J.B.[.*X_.3X/.B.J.{.<X<X5X^.I c.f.k.k.l.f.q.0.6.K b b ",
"w 9 9 w e e z z f z c n b c b D V  .pXdX;X;X+X+X*X*X`.$X&X%X@X@X%X%X:XMXP.W v.l.k.k.f.q.q.8.6.m j z ",
"u e 9 9 9 y s z z n M M M n &.D B ] nX;X{.3X&X<X#X*X`.`.`.$X`.1X&X%X=XBX' } v.z.l.f.p.u.8.8.;.b s f ",
"u e f e 9 9 u z z M M M =.M M n p , aX;X=X,X:X@X@X=X$X1X`.1X&X$X&X>X;XmXE P j.h.l.p.t.t.6.6.*.b f f ",
"e u z e e 9 j z n M e.=.=.b b c K , U.pX6X<X,X{.dX{.%X1X).1X>X$X>X2XpXyXY y.z.z.a.a.t.L 6.6.=.%.f s ",
"e u z u f f u z M M e.<.=.c b b j 5 N.cX7X>X=X].Z.kX2X%X8X5X).7X&X2XpXH.J s.z.x.a.3.L L 7.=.&.h f d ",
"9 e u z z z z M =.e.t.r.<.b n n <.V I bX@X7XxXoXZ.M.A.].].;XlX%XdXkXbXE J a.k.h.4.y.L L <.&.&.h f e ",
"s f b f j n %.n i.1.-.e.<.<.M x D N 4 ) nXxXiXiXiX|.M.M.M.{.;XdXkXmX[ 2 ..s.g.p.4.2.e.F F M b f e e ",
"b c b b b M &.%.1.r.1.1.=.=.&.M M 2.p ; H.nXcXiXjXdXMXBXcXkXdXsXmX[ 2 } v.t.p.g.u.r.<.F F x z d 9 e ",
"b m %.b %.%.%.%.-.1.1.<.n b M <.1.i.r.i Q [ bXBXdXdX8X1X8XdXdXaX_ 1 Q c.a.u.q.f.u.e.<.D D z s d 7 w ",
"b b b *.=.;.&.%.%.-.1.-.%.b &.&.-.;.:.i.Z 2 _ I.MXcXNXNXBXBXL.E 1 } c.y.p.g.>.p.0.<.F v x x e 9 9 q ",
"b m *.*.r.9.r.r.%.=.-.=.&.&.M %.8.#.>.:.1.G W R ~ _ N.F.^ U , , ..y.a.t.f.k.,.q.-.M D i C r f e 0 7 ",
"k k *.*.-.9.-.0.%.;.&.=.=.=.*.%.0.w.>.4.:.y.{ E H.( ~ ^ n.T.X...v.t.p.f.w.d.q.:.%.n x r r r e e 7 7 ",
"k k %.%.%.k %.-.-.=.%.%.&.=.=.-.0.0.#.u.-.A Y E.!.9XoX}.wX9XV.1 Z i.g.f.w.w.q.;.&.x S r r r e 0 7 7 ",
"$.b *.*.b k $.=.-.=.=.=.%.M -.-.u.p.;.t.i.H W W.m.C.5X).'.D.S.O.y.l.;.#.x.w.$.=.M D i t e e e q 7 8 ",
"k k %.k k k %.=.%.m &.&.%.&.=.-.6.6.e.1.3.H  .E.^ I.[.(.(.D.( O.H u.u.:.-.-.-.F i i i r r e 9 0 @ @ ",
"k k k b k b c %.b b b %.c %.=.=.7.m =.<.1.2.|  .~ ~.[.(.9XS.`  .H 1.<.<.<.F F D S i i r e e 0 e 7 7 ",
"k d k k k f z c b c b x b b b n 2.F l ,.>.:.2.{ ` !.XX'.wXR.{ 3.2.<.<.D D S S C r r r r e e e 0 7 # ",
"f k s z j f j z z z b b z h b x L v 5.5.>.>.4.V ] !..XD.wXR.{ 2.F D G S S S i N r r r e e q 9 w 7 @ ",
"d f s z f z u u x z f x x n h z c c @.$.;.;.%.G ` P.P.n.XXS.{ S D D D S A r r r r e e e e q e 7 @ @ ",
"d s s 9 u z f e z z g g f x f b j k k %.2.n ;.H ` !.H.^ 9XS.5 v D n D D A N g r e e e e q 0 7 % @ @ ",
"9 e 9 9 u e e e e e e e g z g b k b n A N C D H W Q.o.U !.T.4 K z b x x g g g e 9 e 9 9 7 % % % @ @ ",
"9 0 0 0 e e e w u e 0 9 e g g f j b A N Z C n A { O...: T. .t c b h b x g g g g e 9 e 9 w @ % % + @ ",
"9 7 7 7 9 q 9 7 9 e 9 d e e g g d e e g g w D g B B r N V N e z z x g r e e g g q q e 8 7 7 @ @ @ @ ",
"7 9 0 7 7 d q 9 q d 9 q q e d g f e 9 g e e x d f g x x h g f g r e e e e r g r e q e q q @ @ @ @ @ "
};
