/* XPM */
static char *a1ddf2cc1b404801898d4c59ea8c6e33[] = {
/* columns rows colors chars-per-pixel */
"50 50 251 2 ",
"   c #000406",
".  c #01030C",
"X  c #040B0C",
"o  c #000314",
"O  c #010A14",
"+  c #03041C",
"@  c #0B051C",
"#  c #010A1D",
"$  c #0C091E",
"%  c #0C0713",
"&  c #12051C",
"*  c #14091C",
"=  c #160618",
"-  c #03131C",
";  c #021213",
":  c #11101E",
">  c #020522",
",  c #0C0621",
"<  c #020B23",
"1  c #0D0A24",
"2  c #00062B",
"3  c #0D052C",
"4  c #020C2A",
"5  c #0D0D2B",
"6  c #120524",
"7  c #120B24",
"8  c #13032A",
"9  c #120C2D",
"0  c #1A0C2B",
"q  c #1B0822",
"w  c #021225",
"e  c #0C1122",
"r  c #001A24",
"t  c #03142B",
"y  c #0C132A",
"u  c #021C2C",
"i  c #0C1A28",
"p  c #13122B",
"a  c #1B122C",
"s  c #151928",
"d  c #020D32",
"f  c #0C0D32",
"g  c #150E32",
"h  c #1B0E33",
"j  c #180D39",
"k  c #011333",
"l  c #0D1234",
"z  c #0D143C",
"x  c #051C37",
"c  c #121131",
"v  c #151537",
"b  c #141334",
"n  c #1A1335",
"m  c #141B34",
"M  c #1C1A34",
"N  c #171739",
"B  c #14153B",
"V  c #1A153B",
"C  c #15193D",
"Z  c #19193D",
"A  c #191C3F",
"S  c #1A1A3C",
"D  c #23162E",
"F  c #240F37",
"G  c #221C3C",
"H  c #231738",
"J  c #20082C",
"K  c #002B3C",
"L  c #052538",
"P  c #19233B",
"I  c #103434",
"U  c #24243C",
"Y  c #1A0E40",
"T  c #0A1742",
"R  c #141543",
"E  c #1B1543",
"W  c #151C42",
"Q  c #1A1D41",
"!  c #1B1C43",
"~  c #1B1449",
"^  c #151B4A",
"/  c #1C1D4B",
"(  c #17144B",
")  c #1E1B52",
"_  c #251642",
"`  c #221C44",
"'  c #24164A",
"]  c #231D4B",
"[  c #291949",
"{  c #211E54",
"}  c #291D52",
"|  c #221E59",
" . c #002C43",
".. c #022649",
"X. c #152244",
"o. c #1D2146",
"O. c #16234B",
"+. c #1D224C",
"@. c #1C2B4E",
"#. c #1E2947",
"$. c #00324C",
"%. c #003B4E",
"&. c #003043",
"*. c #163640",
"=. c #1D2252",
"-. c #1D2A52",
";. c #1D2259",
":. c #013655",
">. c #002952",
",. c #242243",
"<. c #23234C",
"1. c #2A254C",
"2. c #242A4E",
"3. c #262B47",
"4. c #232553",
"5. c #2B2554",
"6. c #242B54",
"7. c #2B2B54",
"8. c #242558",
"9. c #2B2659",
"0. c #262B5B",
"q. c #2A2C5C",
"w. c #322555",
"e. c #322A53",
"r. c #322359",
"t. c #39265E",
"y. c #2E3255",
"u. c #2B305E",
"i. c #31335B",
"p. c #2A2A4E",
"a. c #262B61",
"s. c #2B2D62",
"d. c #2C3163",
"f. c #293363",
"g. c #303566",
"h. c #333965",
"j. c #00425D",
"k. c #074756",
"l. c #104B53",
"z. c #224143",
"x. c #2A565F",
"c. c #014B63",
"v. c #034263",
"b. c #185962",
"n. c #005079",
"m. c #3D4866",
"M. c #06637C",
"N. c #0D6973",
"B. c #276C6C",
"V. c #326174",
"C. c #005A85",
"Z. c #006784",
"A. c #0C7498",
"S. c #14708C",
"D. c #2A7990",
"F. c #077BA2",
"G. c #517782",
"H. c #1F819E",
"J. c #29879A",
"K. c #1592AD",
"L. c #1F94B6",
"P. c #0692AC",
"I. c #2B95A9",
"U. c #3398AD",
"Y. c #3AAABA",
"T. c #468993",
"R. c #528A87",
"E. c #4FA5AF",
"W. c #4596B1",
"Q. c #1A98C6",
"!. c #2196C1",
"~. c #17A6C5",
"^. c #18AAD8",
"/. c #00B8D8",
"(. c #15B4DE",
"). c #03A9DB",
"_. c #26B3DA",
"`. c #28AAD1",
"'. c #08B5E7",
"]. c #02B8F2",
"[. c #0BAFE3",
"{. c #29BAEB",
"}. c #50B7CD",
"|. c #18C6DF",
" X c #19EBDB",
".X c #05C6E8",
"XX c #17C7E8",
"oX c #02CEFD",
"OX c #07CAF8",
"+X c #12CAFA",
"@X c #19C8F9",
"#X c #00DCF6",
"$X c #02D3FE",
"%X c #0BD3FE",
"&X c #02DBFE",
"*X c #0BDAFD",
"=X c #15D5FF",
"-X c #12DCFE",
";X c #1ADBFE",
":X c #1BD3FA",
">X c #19D1ED",
",X c #2AC6E8",
"<X c #37C6E7",
"1X c #2DD6EB",
"2X c #29CCF6",
"3X c #28D5FB",
"4X c #3BD6FE",
"5X c #37CFF0",
"6X c #05E5E8",
"7X c #02ECFE",
"8X c #0DEDFD",
"9X c #09E9F8",
"0X c #14ECFD",
"qX c #16E6FA",
"wX c #03F2FF",
"eX c #0CF3FE",
"rX c #07F8FA",
"tX c #14F2FD",
"yX c #16F7FB",
"uX c #0CF2E7",
"iX c #2AEDF9",
"pX c #31FCFB",
"aX c #33F0F6",
"sX c #53C8D2",
"dX c #43EFDF",
"fX c #5DCCE5",
"gX c #55D5E0",
"hX c #44F9FD",
"jX c #57FFFE",
"kX c #4EE9F6",
"lX c #79EDF8",
"zX c #62FFFF",
"xX c #68F2F4",
"cX c #79FFFF",
"vX c #70F8EE",
"bX c #7CCFC7",
"nX c #84AFB8",
"mX c #A8B9CB",
"MX c #AEDFE4",
"NX c #8AFFFF",
"BX c #84FCFD",
"VX c #94F8FB",
"CX c #91EBEA",
"ZX c #B4FFFF",
"AX c #BDFFFF",
"SX c #A7EEF3",
"DX c #C7FAFD",
"FX c #DDFDFF",
"GX c #D5F8FF",
"HX c #C5E7F3",
"JX c #F2FDFF",
/* pixels */
"7 7 7 $ $ @ @ + $ + @ $ @ @ @ & % % % O # # < 1 * = = = = % ; - , 5 9 9 5 5 c c c b b C S A A A Q Q ",
"7 7 7 7 $ $ $ @ $ + @ $ @ @ @ @ % % % + > > , , 6 & & = * : e e 1 5 9 9 5 9 c b v v C C A Q Q Q Q Q ",
"7 7 7 1 $ $ $ $ $ + + $ @ @ @ @ @ @ 6 6 8 8 3 3 3 9 9 3 9 g h 9 9 9 9 9 9 c c b v N C C C A Q ! o.+.",
"@ @ $ $ $ $ @ @ $ + + $ @ @ @ @ & & 6 8 8 8 8 5 3 l l 3 f j j 8 9 9 9 9 c c c c v v b b C C A Q <.<.",
"@ @ @ @ $ $ $ $ $ + @ $ @ $ @ @ & = & & $ $ 1 e < y y 5 5 v n 9 9 5 5 9 c c c c v v v v C C A Q +.<.",
"@ @ 1 1 1 $ $ $ $ $ $ $ @ $ $ @ % = = & @ $ $ - # w y 5 c N V g b c 9 c c c b b N N N S C S Q Q ! Q ",
"@ @ 1 1 $ $ $ $ @ $ $ $ $ $ $ $ $ $ , & & & 7 1 1 t 5 l v V F j n v b v v N v v N N S S S S S S ! Q ",
"@ @ @ @ $ $ $ @ @ $ $ $ $ $ $ , > 1 1 1 7 7 7 p p 5 f b v n h h N v v v N S N v v v N S S S S S / o.",
"1 1 , , $ , , , a o $ p o + , , > 4 < # # i e p 1 M n g H p U p S S S S N N S S N S S S S S S S ! ! ",
", , , 1 1 , , , 7 $ 1 , # 1 1 + 5 < w i - - i i y b g n M e s s S S S S S S S S N N N S S S S S ! ! ",
"$ $ 1 7 7 1 , $ + p , + , 1 1 # o . . X     O o o + + o o O . s S Q / Q ! ! S S N N N S S S S S S S ",
", 1 7 7 1 1 , $ + 7 , 1 , + 1 w O *.I z.z.I l.k.%.$. .$.K L o i S / o./ ! ! S S S S S S S S S S S ! ",
"7 1 1 1 , , , $ 1 , 1 p 1 1 1 O b.CXSXSXSXCXBXcXhXXX/.|.`.A.k 2 W +.<.o.Q Q ! ! ! ! S S N N N N S S ",
"7 7 1 , , , , , 1 + 7 < < y + O E.ZXZXCXVXNXzXhX0X#X.X.XXX_.C.d T Q <.<.o.o./ ! ! S S V N V S S S S ",
"1 1 1 1 1 1 6 , 1 + 9 + 5 < o m.GXFXDXCXvXjXpXtXeXeX&X'.).{.!.>.d B <.<.<.<.<.! ! ! S V N N N S S S ",
", , 1 1 7 1 1 1 9 , a < m o # mXJXFXAXBXdX XuXeX7X7XqXOX'.(.{.A.2 l <.7.7.7.<.! ` ` S V N v v v N S ",
"7 7 1 1 1 1 1 5 b 9 , y w O G.HXJXGXVXkX XuXyX9XwXwX9X-X'.'.'.`.>.> o.7.<.i.` ] ` ` 1.` S n v V n v ",
"7 7 7 1 5 1 5 9 0 9 1 N t O x.DXFXFXNXaXuXrX6XtX7X7X8X&X.X'.@XQ.x 2 2.y.<.7.] ] ] ` E E ` S N g g g ",
"7 7 7 5 5 5 9 9 0 g 9 N t O u nXGXDXNXhXyXyX6XyXeXwXeX&X].'._.n.2 C y.7.4.7.5.] ] ` V S ` S N g N N ",
"7 7 9 9 5 5 0 g 9 n 9 5 y w O z.MXZXcXjXtXeX8XeXrXeX7X$X].{.A.k d 6.7.4.7.5.q.5.' ] 1.1.! N N N c v ",
"7 7 9 9 5 9 g n 9 0 9 5 m u u O R.CXBXjXyX7X0X0XrX9X9XoX].^.:.> O.h.<.4.7.8.q.8./ <.4.<./ ! C S b b ",
"1 9 9 9 9 9 g n 0 9 0 v A t P O r bXNXjXpX7XqX0XrX6X0XOX(.C.4 l h.m.<.4.q.8.8.8.4.+./ +.<.<.Q C B N ",
"1 1 9 9 9 9 g g h n n b b y m w   B.lXzXhX0X8XeXrX7X-X(.F.x 4 <.i.h.6.8.q.q.0.8.8.8.8.8.6.2.O.C B B ",
"1 1 9 9 9 9 g g 9 G S 9 c 3.4 m O X }.cXhXqXyX7X7XtX.X~.j.2 X.7.4.q.q.8.8.s.d.s.0.d.g.u.6.O.W Q ! ! ",
"5 9 9 9 0 g g g V N N S S S v n 7 o %.lXzXiXeXwX7X-X,XM.< t 2.7.8.8.q.q.s.d.d.s.d.f.f.0.6.+./ Q W S ",
"5 5 5 9 0 g g v v b N N N N v n G a # D.cXhX9X7X8X>XK. .+ P y.4.q.q.q.q.0.s.s.0.f.f.f.0.6.+./ ! B N ",
"5 1 5 9 9 0 g v b B B C N V V V _ [ . r sXzX0XeXiX~.c.< t y.7.4.8.q.8.8.q.d.d.d.d.f.q.8.8./ Q W b b ",
"y 5 9 9 9 9 g v B B C W S N V V ' _ q . l.xXpXqX5XZ.t < #.y.<.7.8.8.8.8.q.g.g.g.d.s.0.8.+./ ! R g g ",
"p p 9 9 9 9 g B B W W W W V V E 4.V D O O U.kX1XU. .< L y.5.<.q.q.q.q.8.8.q.s.0.s.0.8.4.] / E B g g ",
"y p g 0 9 9 g B C W X.X.W B V V R X.M 7 # K sXgXc.2 t 2.7.w.9.8.u.d.u.q.f.d.d.f.0.8.8.] ] / E v g g ",
"5 9 b g g g v B W X.O.O.W B V S k X.A S m O B.T.t 4 X.2.1.e.9.a.q.u.d.u.d.g.g.d.8.8.4.] ] ' E j g 9 ",
"5 5 b b g g v C W O.@.@.W S V S L x W o.N # O r > k @.2.e.7.4.d.f.f.u.0.0.0.0.;.8.8.=.] ] ` V j g 9 ",
"f l v c p b N B 2.@.O.O.o.o.M p m m A Q o.m 2 + k X.@.@.2.7.q.6.f.f.f.d.d.s.a.a.;.=.) / ! V h g 9 9 ",
"R R S v v N C B +.=.=./ ! S M M S Q Q o.o.o.C d C <.7.6.6.0.u.6.f.f.u.s.s.s.a.0.8.4./ / ! V h 0 9 9 ",
"~ E E V V V V R ) { | ) E j H G _ [ ] +.-.6.6.4.] r.t.r.9.q.0.0.0.q.q.7.9.9.5.5.5.] ` ` H n 0 6 7 1 ",
"( ~ E E ! ! E R ( ) { ) E V V _ ' ' / / =.-.0.q.} r.r.r.5.8.0.0.0.q.q.5.5.5.5.5.] ` ` V M n 0 9 , 1 ",
"R R W Q o.o.O.+.R ^ / / ! E S S Q ^ ^ O.O.@.-.6.-.8.6.4.4.6.0.0.f.a.a.0.0.q.5.5.! ! B B B b l 5 , , ",
"z z C W X.X.O.+.^ ^ ^ ^ Q ! W C O.O.O.+.+.+.+.+.-.@.-.@.-.6.7.7.0.0.0.8.6.4.<.,.S N v b l l l 5 , , ",
"z B B C C z C / ! / E E E ! ! Q -.O./ ] } } ] <.+.@.-.@.6.7.e.e.5.5.4.<.,.` G M H n a p p y y 1 , @ ",
"v B ! W B l B Q / ' ~ E E E / +.-.O./ { } } ] <.<.+.@.6.4.7.5.w.w.5.5.1.1.,.G H D D a 0 7 7 1 1 $ & ",
"j E B B z z W R ' E Y ' ~ R R 4.8.4.) ) / / / =.8./ ] 4.4.7.7./ r.} ] ] <.,.v G 0 a H n 6 9 5 1 6 @ ",
"g v f B W z W ! g V _ V E / +.+.R E / <.4.+.Q R ! / <.7.<.B Q 7.Y } 5.! B Q <.,.G 9 8 h F 0 , + , 7 ",
"7 a p m l t m p M n a 9 b b d > o.A S v S G ,.,.S 3.m < m 3.,.g w._ j <.+.z C > n 9 h F J q q 7 @ $ ",
"$ e # + + # t y y e s P m 4 < < w t m S G G S m P # O # < y M G V H B @.t > k + 4 p H D q * * @ s # ",
"i < + u x < < # # # # + # t :.V.< # < > + + > > # u l.b.w # > + o w O O O L b.K < + o . o % % . o o ",
"w w j.W.}.I.M.c.K &. . .c.H.}.fXI.J.S.v....... .M.U.fX}.S.D.D.$.K K L %.N.Y.sXU.S.j.x w # O O - I I ",
"P.~.^.,X2X,X2X2X<X<X<X,X2X3X+X/.XX,X,X{.<X<X5X,X2XXXXXXXXX2X2X,X<X<X,X1X>X.XXXXX3X(.Q.L.L.U.Y.E.T.V.",
"Z._.4X+X.X&XqX%X;X;X;X-X&X$X$X&X%X=X%XOX=X;X=XOXoX-X$X$X-X$XoX;X:X3X3X%X&X&X$X&X$X;X3X2X4XkXsXJ.w O ",
"2  .K.1X#X&X&X*X%X%X&X#X#X&X&X$X$X%XoXOXoX%X%X%X$XoX$X$X$X$X$X%X$X%X+X+X$X$X$X$XoX=X:X2X4X`.b.O # # ",
"> > %.P..X&X&XoX%X%X&X#X#X#X&X$XoX$XoXOXoX$XoX$XoXoXoX$X$XoXoX$X$XoX+X+XoX$XoXoXOX.X+X3X(.j.; X + @ "
};
