/* XPM */
static char *_2385ebdfa734271a006e78f620369b7NX6ycmApmyUWotUi[] = {
/* columns rows colors chars-per-pixel */
"50 50 252 2 ",
"   c #020102",
".  c #0B0102",
"X  c #000901",
"o  c #030209",
"O  c #0B0209",
"+  c #09090C",
"@  c #080806",
"#  c #130102",
"$  c #1B0103",
"%  c #130409",
"&  c #1C020A",
"*  c #1B0A0A",
"=  c #170A00",
"-  c #050312",
";  c #0B0A15",
":  c #160A13",
">  c #1F1111",
",  c #230101",
"<  c #2C0101",
"1  c #230B02",
"2  c #24020A",
"3  c #2B030A",
"4  c #280B08",
"5  c #330102",
"6  c #3B0101",
"7  c #3C0A02",
"8  c #34030A",
"9  c #3A0409",
"0  c #370A09",
"q  c #250610",
"w  c #2B0316",
"e  c #340214",
"r  c #3E0417",
"t  c #28100E",
"y  c #440101",
"u  c #4C0201",
"i  c #450B01",
"p  c #420109",
"a  c #4A040C",
"s  c #4C0C0D",
"d  c #470B08",
"f  c #530201",
"g  c #5B0301",
"h  c #550C02",
"j  c #5B0C01",
"k  c #55020A",
"l  c #59020A",
"z  c #540B0E",
"x  c #4D120B",
"c  c #451107",
"v  c #5B1102",
"b  c #571809",
"n  c #460012",
"m  c #590612",
"M  c #461818",
"N  c #521711",
"B  c #640303",
"V  c #6B0301",
"C  c #620B01",
"Z  c #690804",
"A  c #740100",
"S  c #7B0301",
"D  c #7B0B02",
"F  c #730805",
"G  c #671506",
"H  c #751501",
"J  c #7C1200",
"K  c #7C1D02",
"L  c #731C0A",
"P  c #7D1E0A",
"I  c #660515",
"U  c #770B13",
"Y  c #681A14",
"T  c #781815",
"R  c #582307",
"E  c #56271A",
"W  c #692506",
"Q  c #682413",
"!  c #702116",
"~  c #792F06",
"^  c #502323",
"/  c #6E372D",
"(  c #840200",
")  c #880906",
"_  c #930E01",
"`  c #970B05",
"'  c #841500",
"]  c #841B03",
"[  c #8A1905",
"{  c #931B01",
"}  c #9A180C",
"|  c #810E16",
" . c #8B1210",
".. c #A9180D",
"X. c #8A2506",
"o. c #9C2401",
"O. c #9E2B02",
"+. c #98270B",
"@. c #933404",
"#. c #8B2712",
"$. c #9B2C1B",
"%. c #93321E",
"&. c #8E3C0A",
"*. c #A52804",
"=. c #B52700",
"-. c #A43405",
";. c #B53606",
":. c #A9261F",
">. c #A23B17",
",. c #B82F15",
"<. c #8F3525",
"1. c #AC3A23",
"2. c #B92C22",
"3. c #D12F00",
"4. c #C83500",
"5. c #C23913",
"6. c #D53711",
"7. c #984507",
"8. c #B65708",
"9. c #B94A17",
"0. c #B1500F",
"q. c #9F7014",
"w. c #884828",
"e. c #995231",
"r. c #AB4A27",
"t. c #A94E36",
"y. c #B1502B",
"u. c #B46E29",
"i. c #B87936",
"p. c #B46B0C",
"a. c #C4480B",
"s. c #CA5616",
"d. c #D3550D",
"f. c #E85711",
"g. c #CD6606",
"h. c #D86A03",
"j. c #CB6A19",
"k. c #D4691F",
"l. c #CD7D1C",
"z. c #E47A0F",
"x. c #CB4825",
"c. c #D54E23",
"v. c #D45F24",
"b. c #C75033",
"n. c #C56B26",
"m. c #D86A25",
"M. c #DD772A",
"N. c #CF6735",
"B. c #D96832",
"V. c #C67F2F",
"C. c #E6642A",
"Z. c #E27626",
"A. c #E97B38",
"S. c #F67533",
"D. c #9B4F42",
"F. c #B35547",
"G. c #896755",
"H. c #BF7344",
"J. c #B77456",
"K. c #AC755C",
"L. c #B97B66",
"P. c #D05F4F",
"I. c #D26F50",
"U. c #E47841",
"Y. c #E77656",
"T. c #E0675F",
"R. c #C47A62",
"E. c #D26C60",
"W. c #A99123",
"Q. c #ED8E15",
"!. c #E5A71E",
"~. c #C6973E",
"^. c #D39838",
"/. c #D0862D",
"(. c #F39427",
"). c #EB9639",
"_. c #FD9737",
"`. c #EC8532",
"'. c #D9B03B",
"]. c #FDA83A",
"[. c #FAB237",
"{. c #E8AA34",
"}. c #BF9742",
"|. c #D0904D",
" X c #E79A59",
".X c #FF9A59",
"XX c #EB8C4C",
"oX c #F9AC4E",
"OX c #EAB656",
"+X c #F7AA57",
"@X c #CA8967",
"#X c #D69679",
"$X c #CF9775",
"%X c #E59775",
"&X c #F18C6D",
"*X c #DCA262",
"=X c #E9A967",
"-X c #FBA867",
";X c #F7B46B",
":X c #F8A876",
">X c #FFB67B",
",X c #E6B270",
"<X c #D1A856",
"1X c #DDC15E",
"2X c #E3C959",
"3X c #FAC65B",
"4X c #F6CE51",
"5X c #E6C36A",
"6X c #FFC46D",
"7X c #FFD76D",
"8X c #FFDC6B",
"9X c #FBC777",
"0X c #FAD47D",
"qX c #EACE78",
"wX c #FFE479",
"eX c #EDE47B",
"rX c #D79884",
"tX c #E49888",
"yX c #FFB788",
"uX c #F8B095",
"iX c #FFB8A5",
"pX c #EEBCA1",
"aX c #FFCB89",
"sX c #FAD586",
"dX c #FFC393",
"fX c #FFC897",
"gX c #E1D493",
"hX c #FDD49B",
"jX c #FFDD9C",
"kX c #FFDE97",
"lX c #F9E387",
"zX c #F9F487",
"xX c #FFE494",
"cX c #FDE99A",
"vX c #FBF695",
"bX c #FFC4A7",
"nX c #FED6A7",
"mX c #FFD7B8",
"MX c #FDE9A8",
"NX c #FFF4AD",
"BX c #F9F7A7",
"VX c #FFE8B9",
"CX c #FEF5B3",
"ZX c #FFFCBB",
"AX c #FCF9B5",
"SX c #ECF6AF",
"DX c #FFDECA",
"FX c #FFE5C3",
"GX c #FFEACD",
"HX c #FFF7C6",
"JX c #FFEBD2",
"KX c #FEFFD4",
/* pixels */
"      .                   . .   X X @ . # O O O o   X X X o - - O o               X       o         ",
"                          . . @   X   . . O O O X . X X X o o - .                         o o   o   ",
"                      .   . O . X . @   O o O . o . X @ .   o o   o                         o       ",
"  .                     .   @ . @ @ . . o O o o   . . . @ . . . o             .           o         ",
"                        .   @ . . . . O o o o   . . # . . . . . o   o           .   .         o     ",
"                              . . # . O + o o @ . . # # # . .         o o   . . . .   . .   o       ",
".                             . $ $ % # + @ X o . @ # # . . .     o o     . o . . O .               ",
"                X             . 2 < 2 * O @     . @ . # . o o   o   o o     . . O . o               ",
"                              . M / 1 ^ = . @ .   % : o O o - o     o o   o o o o                   ",
".                             . w E 5 M < 1 $ # % . : O O ; - ;     X o + + - +   o     X   X     o ",
"                          . . # 5 N x N < < , $ t . : : o +   + .     . @ O @ X o   X o X           ",
"                          . . # 5 d Y Q y 5 5 < , 1 . # * > % t # # . .           o   X o           ",
"                      . . . # $ < i Y Q L L C 6 / G.4 # 1 , < $ 0 t , # . .                         ",
"                    . . . # % $ , 6 h L <.$.%.C L.DXG.& $ , R 5 d M 0 2 $ . @     X X o     .       ",
"                .   . . % % & $ , 7 v F.P.>.+.P R.GX}.& 7 w.#Xw.u s c 5 , # # .           . . .     ",
"              . . . . # % & 2 2 < h / iXiX$.A X.uXHXJ.< R #XnX&.y d s 0 < & % o           . .       ",
"X X   o . . . . . . # . % 2 2 e 5 x N mXrXh D Z #XVX%Xu W *X/.n.y 6 6 0 2 * : O @ .                 ",
"X X   o O O . . . .   > # 3 r 9 d i 7 pX@Xy B ] @XVXb.@.~ =X9X&.f y i 0 < % % O . . .               ",
"    o   o . . .   #   1 $ , d 5 6 c v %XI.H S J =XaXo.( @.yX:Xj u u s d < , $ # # . .               ",
"      o           = # , E E d 6 6 6 u %XI.D S O.<X-Xa...y.dXR.p u a z u 5 5 < , # .       X         ",
"O O O     X   X @ = $ 5 $XrXE p x s I E.P.A ) P.}.;Xd.C.m.XXH.f f m l f u h x < $ # o   o           ",
"O O o           # , < < rXbXw.u 6 f V F.T.( ) :.iXkX;.d.k.A.t.j l I B g B H G 6 , # O   o o         ",
"O . o     X   . $ < 7 6 e.iX@XW G g V P.uX....:.mXyXO.;.A..X#.B I I F V S [ K u 5 $ .   o o         ",
"O o           # $ 5 u b <.GXFXe.g B V 1.&X( ..2.&XN.O.;.h.m.1.F U |  .( _ -.+.v 6 < # o o           ",
".       X   @ $ 8 < a k Y tXGXJ.g V [ { =.` 6.d.a.g.h.z.h.Q.;.A ) ) _ _ 5.x.o.H b 0 $ . o   .       ",
"o           # , e n n I u D.GXiXt.K { 9.m.a.4.S..X).Q.Q.Q.(.O.A ' } :.x.5.5.O.K W c $ . .   . .     ",
"      X     . & w r n m l ! R.FX6X/.).).).+X).6XcXsXwX8X_.A.' S } { ,.a.=.x.r.K Y 0 $ . .     .     ",
"  X         # $ w e r 6 m G G >XzX[.{.p./.^.|.xXCXCXAXvXoXj.' A S *.s.;.A.Y.+.g h 5 $ # . .         ",
"            . . % w 3 9 6 f H 0.8X4X'.|.sX5XqXCXKXKXSXvX7XQ.0.[ J Z.A.A.nXI.f b 6 < # # .           ",
"o             . O % 2 5 y l ] B.3X8X5XsX5X0XkXnXFXKXSXzXwX{.oXg.`._.Z.-XfX~ y x 0 < # . o           ",
"o o .           X   $ , j H { .X3X3XxXNX|.W.m.C.Y.bXBXzX4X!.[.(.oXz.j. Xe.i i , 3 2 # .   o o o     ",
"O o .       X   X + . , h ] c.B.;XlXvX|.u.M.=.4.,.yXBXzX'.{.[._.(.Q.n.7.6 i 5 3 , $ # . o o o o     ",
"o                 + * 5 j  .2.b.:XjXV.7.0.=.3.f.s. XCXZXzX2XoXk.m.A.H u h < 0 & , % #   .   o o     ",
"        .           . , f D ` :.&XdX8.8.v.c.d.f.s.=XVXSXzX2XOX;XU.N.X.g y 8 e & $ # . .     o o o   ",
"        .       X   . , g A ` ` b.fX^. X-XfX.XM.n.u.VXCXeX2XOXkX:X>.C g y 8 2 q $ # . .       o     ",
"      .           @ # < u V ( ( >.hX3XwXxXxX+X).XXi.hXZXlXW.q.aX-X' f u y 9 & q % # .               ",
"                  . $ , y g S ( D fX0X~.<X0X2X^.OX,XAXCXeXOX,X-Xy.] C u 6 9 2 & % # .               ",
"        .       o . # < u Z ( ) S &XsX9XxXsX1X1XqXzXHXMX0XBXhX@.>.#.g y 9 8 q & # . .               ",
"X       .       o % * 8 z U |  .b.Y.jXsXgXAXBXcXCXCXnXnXNX9XXX9.y.H y y 9 < & & # . .               ",
"                  % 2 t a l F | :.] :XjXgXAXMXCXHXMXuX@XH.@.+.r.P y y y < 2 & % # .       X         ",
"          .     O % * 8 9 u l g g h w.VXHXnX,XH.|.I.t.L f g g f g u y 6 < & % # .   .               ",
"                . % & 2 8 y u u y i b K.K.F.t.#.A H Z g j L Y g u y 5 < , $ # . .                   ",
"  o               . # & < 5 6 6 y i 6 j B B U g k g f f C T | V u 5 5 , $ # . .   .           X     ",
"o               .   . $ 2 < 5 5 5 y y y k f m k z z a y j T U B y 5 , , # . .                       ",
"                  . . % $ , 2 < 5 p p 6 s 6 i y 6 y u u k m m a 8 2 , $ # .       o   o             ",
"  o               . . . # % $ , 5 5 8 5 d 5 5 6 6 u u u y p 9 5 < , $ # @           o               ",
"                    . . . # $ $ , , < < 8 5 0 0 5 5 5 5 5 < < < 2 $ # # . .       o o o             ",
"o                   o O . # # $ $ $ 3 8 < 5 5 5 5 5 < < < < , $ , $ # . @           o   o           ",
"                      . @ # % $ , , , < < < 5 8 < 5 < < < , , , & $ # # . .                     o   ",
"o                     . . # $ & , , < < 5 5 5 8 5 5 < < < , , $ $ $ $ # . . .                       "
};
