/* XPM */
static char *b0707ca2111f4e72c0b0265ecc29d3766qn6ixtENshyAEWc[] = {
/* columns rows colors chars-per-pixel */
"50 50 176 2 ",
"   c #0C051D",
".  c #0C081F",
"X  c #10081F",
"o  c #0C0622",
"O  c #0E0A24",
"+  c #0C0629",
"@  c #0E0C2B",
"#  c #110A24",
"$  c #120D2C",
"%  c #13112D",
"&  c #18122F",
"*  c #0F0E33",
"=  c #0C0F38",
"-  c #140F31",
";  c #190F31",
":  c #0E1037",
">  c #0E123A",
",  c #141233",
"<  c #191335",
"1  c #191837",
"2  c #151539",
"3  c #161439",
"4  c #141738",
"5  c #171638",
"6  c #171739",
"7  c #16163A",
"8  c #17173B",
"9  c #17173D",
"0  c #15153B",
"q  c #181739",
"w  c #18163B",
"e  c #1A163B",
"r  c #15183B",
"t  c #15193C",
"y  c #14183D",
"u  c #16193C",
"i  c #171A3D",
"p  c #14183E",
"a  c #16183E",
"s  c #16183F",
"d  c #15183E",
"f  c #191838",
"g  c #1A1938",
"h  c #1A1939",
"j  c #18183A",
"k  c #19183A",
"l  c #19193B",
"z  c #1A193B",
"x  c #1B1A3A",
"c  c #1A1B3A",
"v  c #1C1B3B",
"b  c #1B1C3B",
"n  c #18183C",
"m  c #19193D",
"M  c #1A1A3C",
"N  c #1B1A3C",
"B  c #1B1B3D",
"V  c #19193F",
"C  c #1A1A3E",
"Z  c #1B1B3F",
"A  c #1C1A3F",
"S  c #191C3F",
"D  c #1D1C3C",
"F  c #1C1C3E",
"G  c #1D1D3F",
"H  c #1B193D",
"J  c #21173C",
"K  c #20193F",
"L  c #161642",
"P  c #181742",
"I  c #171940",
"U  c #161A40",
"Y  c #171B41",
"T  c #161942",
"R  c #171C44",
"E  c #161A43",
"W  c #191840",
"Q  c #181A41",
"!  c #191B41",
"~  c #181A40",
"^  c #1A1A40",
"/  c #1B1B41",
"(  c #1A1943",
")  c #191B42",
"_  c #1B1A42",
"`  c #1C1B43",
"'  c #1B1E41",
"]  c #1A1C43",
"[  c #191D43",
"{  c #1C1C40",
"}  c #1D1D41",
"|  c #1C1C42",
" . c #1D1D43",
".. c #1C1F42",
"X. c #181B44",
"o. c #191B44",
"O. c #1A1B47",
"+. c #1A1C45",
"@. c #1A1E44",
"#. c #181D47",
"$. c #1B1D46",
"%. c #1B1E47",
"&. c #1E1E44",
"*. c #1C1E47",
"=. c #1D1F45",
"-. c #1C1B43",
";. c #151E4A",
":. c #1B1C48",
">. c #191E48",
",. c #1B1E49",
"<. c #1A1E4B",
"1. c #1C1D49",
"2. c #1C1F48",
"3. c #1C1F4A",
"4. c #1C1F4C",
"5. c #1C1D4A",
"6. c #1D1F50",
"7. c #211D44",
"8. c #211E4A",
"9. c #1F2147",
"0. c #182047",
"q. c #15204C",
"w. c #1E2248",
"e. c #1B224E",
"r. c #1C204D",
"t. c #1E214E",
"y. c #1F224F",
"u. c #1D214C",
"i. c #0F2356",
"p. c #152351",
"a. c #1F2151",
"s. c #1E2251",
"d. c #1D2450",
"f. c #1C2553",
"g. c #1D2956",
"h. c #152759",
"j. c #1E2659",
"k. c #14285B",
"l. c #1C2B5C",
"z. c #232145",
"x. c #21234A",
"c. c #212349",
"v. c #20234E",
"b. c #22264C",
"n. c #22224C",
"m. c #29274F",
"M. c #232553",
"N. c #282753",
"B. c #262955",
"V. c #292A55",
"C. c #252659",
"Z. c #2A2759",
"A. c #252A5A",
"S. c #2A2B5C",
"D. c #302E5D",
"F. c #23305E",
"G. c #2B315F",
"H. c #172B60",
"J. c #1C2D62",
"K. c #192F68",
"L. c #1D3165",
"P. c #1E3369",
"I. c #232E61",
"U. c #2C2E61",
"Y. c #243264",
"T. c #2D3164",
"R. c #23356B",
"E. c #29356A",
"W. c #27386E",
"Q. c #2C396D",
"!. c #313265",
"~. c #333669",
"^. c #253B74",
"/. c #293D75",
"(. c #364075",
"). c #3E4579",
/* pixels */
"# X X X X X                             . . . O @ O o @ @ O O # O # # # $ $ % , , , 1 r V b  .B ] R ",
"# # X X X X                             . . . O o o O O @ # % # O # % % $ % % & , < f f b b  . .B 0.",
"X X X X X X                             . . . O . O O O # % % # @ # $ $ $ % % , , 1 r f V B b 9.9.9.",
"X X X X                                 . O . O o % % O # & & O # $ % $ % % , , 4 < 0 < f f V b 9.b.",
"X     . X       .             .     . . . . O O O % % O # & & O $ @ % % % , % : , 1 < < r r B  .9.b.",
"X X X X X X X X         .           . . . . O O . O % O % < 1 & , % % - , , , , 1 1 r V f c b  .] ] ",
"  . . X X X     .     . .     .       . . . O O O # @ % % , % 1 , , , < < < < < , r f f B B B B d ] ",
".   X           .             .     . . . . O 4 % % % % 4 , , % 0 < 0 0 r r r < , r r f V f B r  .9.",
"X o . .   o   o .       O O .   O O . . . % % , @ % % 4 4 4 4 4 Q e Q Q Q 0 0 A r V f V h b b V  .&.",
". . o o O . o . o . o o O O . . . O . O O % % % % % 4 4 4 4 c c -.Q ( -.` e V V 0 0 f f b b b b V b ",
"    # # O O o     O o o . . O . O O O O % % : % 4 4 4 t 4 t t 0.O.( ( 1.+.Q Q Q < r w f h b c b V Q ",
"o . O O O o o   o O O O . . . O O @ @ % % % % % 4 4 t t t Y Y 0.2.O.1.1.2.( Q Q ] B A f g g 1 g V Q ",
"O O O O O . o . o o O . .   O % @ @ % 4 , , , : r d U d U R 0.d.<.6.4.2.2.2.] d  .b V f 1 < 1 g h A ",
"# # O o . . o o . O O O O O # % % % % % , < , > d U R <.0.0.e.f.d.d.6.d.d.v.&.L  .V V V 1 r 1 r h A ",
"O O O O O o O O O O O O @ % % & % % 4 4 0 0 0 0 Q +.<.r.v.f.f.M.j.M.M.M.M.N.x.Q &. .b f 1 1 g f A A ",
"o o O @ O @ O O @ O @ @ % , , , 4 % 4 % 0 d U U R ;.d.f.j.j.l.l.A.A.j.M.M.A.b.` x.7.b f < < < < f h ",
"O O O O O O O @ , @ @ % 1 1 , @ % % 4 4 t 0.0.q.q.i.l.H.H.L.P.P.Q.I.I.I.U.6.w.8. .z.z.z.h < < g < < ",
"O O O O O O @ @ : @ % % : , : @ % % 4 4 t 0.q.q.i.i.H.L.L.P.^.(.W.E.R.U.C.C.b.8.7.A g J K K h , - - ",
"O % % O @ @ @ % @ % , : : % : % , , c b 0.0.p.p.h.k.L.P.P.P.^.^.R.E.E.I.C.S.Z.x.7. .J h 7.` 0 , g e ",
"O . O % O @ % % @ % % % : , : , , 1 b 0.0.b.g.l.F.l.H.P.L.K.^.(.R.T.U.C.A.U.V.m.7.z.m.z.-.0 0 0 - - ",
". O % O % @ % , : @ @ : < r 0 , 4 y E ;.q.p.l.l.J.l.l.L.L.P.W.R./.!.I.j.C.C.N.a.2.n.N.n.8.Q L P : 0 ",
"O % % % @ @ , , % % @ % r f r 1 > y E E p.p.l.l.l.h.H.L.L.L.(.R.).!.a.U.S.Z.a.Z.M.8.4.6.M.N.6.L e e ",
"O O O % @ % % , % , 4 4 0 r V d y E E ;.p.p.g.F.l.k.l.F.F.E.Y.G.~.T.U.Z.S.S.Z.U.Z.N.M.N.C.M.6.L 0 0 ",
"% O % O % @ % % , 1 r r , , 0 d 0.0.q.q.p.g.l.F.Y.L.F.(.Y.E.~.R.a.U.U.Z.C.U.!.!.S.U.!.U.C.6.<.O.P P ",
"% % % % % 4 % % < , r f V V 0 0 > ;.q.f.p.g.F.E.F.Y.I.A.Y.T.G.M.Z.S.Z.U.U.!.U.U.T.U.U.U.C.6.6.<.P e ",
"% O O @ @ % 4 % , , < r f r 0 0 U q.f.M.g.B.F.Y.F.l.l.M.A.F.S.A.Z.Z.S.Z.Z.U.U.C.U.U.U.S.C.6.O.<.0 0 ",
"@ @ @ % @ % % 4 , , w w r 0 0 0 0.0.0.g.g.g.f.p.g.M.g.f.M.B.S.B.C.Z.S.Z.U.!.!.!.!.T.U.C.C.6.O.L = : ",
"% O @ O @ @ : % , w f A V w f d U R R r.0.0.;.;.f.f.d.r.M.B.V.V.N.Z.Z.Z.U.!.!.!.T.U.S.C.6.<.O.P , - ",
"% % % % @ @ % 4 < V  . .Q d e Q ] A V Q +.r.r.r.y.r.b.B.B.V.V.B.D.Z.D.Z.U.U.U.U.U.I.C.M.6.1.P 0 - - ",
"@ % , % @ @ : % f b  .b Q e 0 V V V V V Q +.w.y.r.r.M.V.V.V.m.V.D.D.U.S.U.T.T.U.U.C.M.6.8.-.e 3 * - ",
"% % % % % % % 4 h K z.7.Q w 0 V < g h A V Q 2.v.b.v.M.V.V.m.m.V.D.U.U.U.T.!.!.T.C.M.a.6.8.7.P - - @ ",
"@ @ % : : % 4 t K 7.b.n.` e e A w V 7.&. .-.x.b.M.v.b.m.B.m.m.V.U.U.U.U.I.U.A.j.N.M.a.8.8.-.3 - - $ ",
"* : < : : 0 P e N.8.8.7.8.7.e 3 0 U U U r.b.y.0.0.y.b.M.b.V.G.V.!.T.T.T.T.S.S.V.v.x.7.7.` g ; ; $ # ",
", 0 d 0 0 P P P 8.8.8.8.7.e P P R R <.r.y.B.B.b.r.b.B.B.B.G.G.B.T.E.U.G.T.S.S.V.n.n.7.7.h g - $ $ # ",
"0 y d 0 L L L L 5.8.8.8.0 3 e 7.+.r.r.r.y.B.B.V.w.d.B.B.B.B.G.V.S.I.S.A.A.Z.N.N.n.n.7.7.e 3 - + # + ",
"0 0 d U O.O.L L P 5.8.8.P 3 P P +.<.r.w.u.b.B.F.d.B.b.d.b.M.B.V.S.U.A.C.A.B.N.N.z.7.7.g w - ; @ + o ",
"y 0 U E e.r.6.8.L O.1.-.P P P P O.<.<.4.4.r.M.C.B.M.M.f.M.M.B.G.U.U.S.S.S.Z.N.N.7.P J 0 < - - $ + o ",
"> > U ;.<.<.4.d.L L ( O.7.P P 0 4.4.O.4.r.r.M.N.B.B.M.N.M.M.S.!.S.Z.C.N.M.M.n.8.e e 0 , ; - $ $ o o ",
"> = U E L > E <.O.O.( L ( -.7.P M.6.1.a.M.v.a.a.B.M.M.C.B.N.A.S.C.N.N.N.n.8.7.P P e 3 ; - $ $ $ o o ",
"U U E E 0 : L R <.O.( L L P 8.8.N.8.4.6.M.8.8.4.b.d.M.N.V.N.N.S.Z.V.N.N.m.8.-.` J g < - - $ + + + o ",
"> L 0 > > > U U L L Q P L P -.8.8.8.8.8.8.8.8.8.n.n.M.N.N.N.N.N.8.8.8.8.8.7.7.7.0 e 3 ; - $ $ + o   ",
"> > > 0 > 0 0 d 0 0 e 0 0 0 ( -.-.P 1.1.1.1.1.1.8.8.1.8.n.n.v.8.8.8.7.7.7.e 7.J < ; ; , $ $ + # o   ",
": : : : : , , 0 , 0 0 0 3 3 0 P P 7.7.7.7.7.7.-.8.7.7.&.8.8.8.7.7.7.7.J J e e 0 ; < ; ; $ + $ O o o ",
"= : * , : : , , , 0 < 0 3 e 3 3 7.7.P P P -.-.7.x.8.7.` 7.7.7.7.7.7.7.e J e 3 ; ; - - $ $ $ # o o   ",
"* * * : - , : % - - ; 3 3 ; e 3 e e 0 e e e J e 7.K K A 7.A 7.A J J J J e ; ; ; $ ; $ ; $ # + o     ",
"* * @ @ % , $ % , - ; ; ; 3 ; 3 3 3 e 3 e e A A 7.7.K A A K g J J J J J < ; ; ; + ; # $ # + o X     ",
"@ + @ @ $ % $ $ $ $ $ ; - ; ; 3 - , < w A A K A A A g K K K A e ; J ; ; ; ; ; ; ; + # + o + o       ",
"+ + + + $ % $ # $ $ + + $ - ; - - - - ; e g e g < < < < g w < ; ; ; J ; ; ; $ ; $ # # # # o o o     ",
"+ + o o + + + # ; + + $ $ $ ; ; + ; @ - ; + e ; ; - ; < < - - - ; ; ; # ; ; ; ; # # # # # #         ",
"+ + + o + + + + # # $ + + $ $ ; + ; - ; - @ e - $ - < < < - ; - ; ; ; ; # ; ; # # # # # o X X X     "
};
